<svg width="696.2600585937499px" height="138.82999267578123px" xmlns="http://www.w3.org/2000/svg" viewBox="-98.13002929687497 5.585003662109386 696.2600585937499 138.82999267578123" style="background: none;" preserveAspectRatio="xMidYMid"><defs><linearGradient id="editing-shiny-gradient" x1="0.6545084971874737" x2="0.3454915028125262" y1="0.9755282581475768" y2="0.024471741852423234" gradientUnits="objectBoundingBox"><stop offset="0.0" stop-color="#e4812f"></stop><stop offset="0.5" stop-color="#f9ae5c"></stop><stop offset="1.0" stop-color="#e4812f"></stop></linearGradient><linearGradient id="editing-shiny-gradient2" x1="0" x2="0" y1="0" y2="1"><stop offset="0.2" stop-color="#fff" stop-opacity="0.8"></stop><stop offset="0.8" stop-color="#fff" stop-opacity="0"></stop></linearGradient><filter id="editing-shiny2" x="-100%" y="-100%" width="300%" height="300%"><feMorphology operator="erode" radius="2"></feMorphology></filter><filter id="editing-shiny" x="-100%" y="-100%" width="300%" height="300%"><feFlood flood-color="#fff" result="flood"></feFlood><feConvolveMatrix in="SourceGraphic" result="conv" order="8,8" divisor="1" kernelMatrix="0 0 0 0 0 0 0 0 0 0 0 1 1 0 0 0 0 0 0 1 1 0 0 0 0 0 1 0 0 1 0 0 0 0 1 0 0 1 0 0 0 1 0 0 0 0 1 0 0 1 1 0 0 1 1 0 0 0 0 1 1 0 0 0 "></feConvolveMatrix><feOffset dx="0" dy="4" in="conv" result="offset"></feOffset><feComposite operator="in" in="flood" in2="offset" result="comp"></feComposite><feGaussianBlur in="offset" stdDeviation="3" result="shadow"></feGaussianBlur><feColorMatrix in="shadow" type="matrix" values="0.7 0 0 0 0  0 0.7 0 0 0  0 0 0.7 0 0  0 0 0 0.3 0" result="dark-shadow"></feColorMatrix><feOffset dx="0" dy="4" in="dark-shadow" result="offset-shadow"></feOffset><feOffset dx="0" dy="2" in="conv" result="offset-2"></feOffset><feComposite operator="out" in="offset" in2="offset-2" result="edge-diff"></feComposite><feGaussianBlur in="edge-diff" stdDeviation="1" result="edge-blur"></feGaussianBlur><feColorMatrix in="edge-blur" result="edge-shadow" type="matrix" values="0 0 0 0 0  0 0 0 0 0  0 0 0 0 0  0 0 0 0.5 0"></feColorMatrix><feComposite operator="in" in="edge-shadow" in2="offset" result="edge-shadow-in"></feComposite><feOffset dx="0" dy="1" in="edge-shadow-in" result="edge-shadow-final"></feOffset><feMerge result="out"><feMergeNode in="offset-shadow"></feMergeNode><feMergeNode in="comp"></feMergeNode><feMergeNode in="edge-shadow-final"></feMergeNode><feMergeNode in="SourceGraphic"></feMergeNode></feMerge></filter></defs><g filter="url(#editing-shiny)"><g transform="translate(0.9199943542480469, 100.64437484741211)"><path d="M49.46-8.76L49.46 0L9.50 0L9.50 0Q8.56 0 7.75-0.34L7.75-0.34L7.75-0.34Q6.94-0.67 6.35-1.26L6.35-1.26L6.35-1.26Q5.76-1.85 5.42-2.66L5.42-2.66L5.42-2.66Q5.09-3.47 5.09-4.41L5.09-4.41L5.09-48.31L13.85-48.31L13.85-8.76L49.46-8.76ZM94.10-24.36L94.10-24.36L94.10-24.36Q94.10-22.54 93.46-20.43L93.46-20.43L93.46-20.43Q92.82-18.33 91.39-16.53L91.39-16.53L91.39-16.53Q89.96-14.72 87.65-13.51L87.65-13.51L87.65-13.51Q85.34-12.30 82.04-12.30L82.04-12.30L66.24-12.30L66.24-20.62L82.04-20.62L82.04-20.62Q83.82-20.62 84.80-21.71L84.80-21.71L84.80-21.71Q85.78-22.81 85.78-24.43L85.78-24.43L85.78-24.43Q85.78-26.14 84.68-27.12L84.68-27.12L84.68-27.12Q83.59-28.10 82.04-28.10L82.04-28.10L66.24-28.10L66.24-28.10Q64.45-28.10 63.47-27.00L63.47-27.00L63.47-27.00Q62.50-25.91 62.50-24.29L62.50-24.29L62.50-12.06L62.50-12.06Q62.50-10.31 63.59-9.33L63.59-9.33L63.59-9.33Q64.69-8.36 66.30-8.36L66.30-8.36L82.04-8.36L82.04 0L66.24 0L66.24 0Q64.42 0 62.31-0.64L62.31-0.64L62.31-0.64Q60.21-1.28 58.40-2.71L58.40-2.71L58.40-2.71Q56.60-4.14 55.39-6.45L55.39-6.45L55.39-6.45Q54.18-8.76 54.18-12.06L54.18-12.06L54.18-24.36L54.18-24.36Q54.18-26.18 54.82-28.28L54.82-28.28L54.82-28.28Q55.46-30.39 56.89-32.19L56.89-32.19L56.89-32.19Q58.32-33.99 60.63-35.21L60.63-35.21L60.63-35.21Q62.94-36.42 66.24-36.42L66.24-36.42L82.04-36.42L82.04-36.42Q83.86-36.42 85.96-35.78L85.96-35.78L85.96-35.78Q88.07-35.14 89.87-33.71L89.87-33.71L89.87-33.71Q91.67-32.28 92.89-29.97L92.89-29.97L92.89-29.97Q94.10-27.66 94.10-24.36ZM137.33-24.36L137.33-12.06L137.33-12.06Q137.33-10.24 136.69-8.14L136.69-8.14L136.69-8.14Q136.05-6.03 134.61-4.23L134.61-4.23L134.61-4.23Q133.18-2.43 130.87-1.21L130.87-1.21L130.87-1.21Q128.57 0 125.26 0L125.26 0L109.46 0L109.46 0Q107.64 0 105.54-0.64L105.54-0.64L105.54-0.64Q103.43-1.28 101.63-2.71L101.63-2.71L101.63-2.71Q99.83-4.14 98.61-6.45L98.61-6.45L98.61-6.45Q97.40-8.76 97.40-12.06L97.40-12.06L97.40-12.06Q97.40-13.88 98.04-16.00L98.04-16.00L98.04-16.00Q98.68-18.13 100.11-19.93L100.11-19.93L100.11-19.93Q101.55-21.73 103.85-22.94L103.85-22.94L103.85-22.94Q106.16-24.16 109.46-24.16L109.46-24.16L125.26-24.16L125.26-15.80L109.46-15.80L109.46-15.80Q107.68-15.80 106.70-14.71L106.70-14.71L106.70-14.71Q105.72-13.61 105.72-11.99L105.72-11.99L105.72-11.99Q105.72-10.28 106.85-9.32L106.85-9.32L106.85-9.32Q107.98-8.36 109.53-8.36L109.53-8.36L125.26-8.36L125.26-8.36Q127.05-8.36 128.03-9.43L128.03-9.43L128.03-9.43Q129.00-10.51 129.00-12.13L129.00-12.13L129.00-24.36L129.00-24.36Q129.00-26.08 127.94-27.09L127.94-27.09L127.94-27.09Q126.88-28.10 125.26-28.10L125.26-28.10L106.03-28.10L106.03-36.42L125.26-36.42L125.26-36.42Q127.08-36.42 129.19-35.78L129.19-35.78L129.19-35.78Q131.30-35.14 133.10-33.71L133.10-33.71L133.10-33.71Q134.90-32.28 136.11-29.97L136.11-29.97L136.11-29.97Q137.33-27.66 137.33-24.36L137.33-24.36ZM184.76-51.82L184.76-12.30L184.76-12.30Q184.76-10.04 184.19-8.24L184.19-8.24L184.19-8.24Q183.62-6.44 182.67-5.07L182.67-5.07L182.67-5.07Q181.73-3.71 180.48-2.75L180.48-2.75L180.48-2.75Q179.24-1.79 177.87-1.18L177.87-1.18L177.87-1.18Q176.51-0.57 175.11-0.29L175.11-0.29L175.11-0.29Q173.71 0 172.47 0L172.47 0L156.67 0L156.67 0Q154.41 0 152.62-0.57L152.62-0.57L152.62-0.57Q150.84-1.15 149.47-2.11L149.47-2.11L149.47-2.11Q148.11-3.07 147.15-4.31L147.15-4.31L147.15-4.31Q146.19-5.56 145.58-6.92L145.58-6.92L145.58-6.92Q144.97-8.29 144.69-9.69L144.69-9.69L144.69-9.69Q144.40-11.08 144.40-12.30L144.40-12.30L144.40-24.16L144.40-24.16Q144.40-27.53 145.63-29.87L145.63-29.87L145.63-29.87Q146.86-32.21 148.70-33.67L148.70-33.67L148.70-33.67Q150.53-35.14 152.69-35.78L152.69-35.78L152.69-35.78Q154.85-36.42 156.67-36.42L156.67-36.42L172.47-36.42L172.47-27.66L156.73-27.66L156.73-27.66Q154.98-27.66 154.07-26.77L154.07-26.77L154.07-26.77Q153.16-25.88 153.16-24.16L153.16-24.16L153.16-12.36L153.16-12.36Q153.16-10.58 154.05-9.67L154.05-9.67L154.05-9.67Q154.95-8.76 156.67-8.76L156.67-8.76L172.47-8.76L172.47-8.76Q174.25-8.76 175.13-9.67L175.13-9.67L175.13-9.67Q176.00-10.58 176.00-12.30L176.00-12.30L176.00-51.82L184.76-51.82ZM232.30-24.36L232.30-24.36L232.30-24.36Q232.30-22.54 231.66-20.43L231.66-20.43L231.66-20.43Q231.02-18.33 229.59-16.53L229.59-16.53L229.59-16.53Q228.16-14.72 225.85-13.51L225.85-13.51L225.85-13.51Q223.54-12.30 220.24-12.30L220.24-12.30L204.44-12.30L204.44-20.62L220.24-20.62L220.24-20.62Q222.03-20.62 223.00-21.71L223.00-21.71L223.00-21.71Q223.98-22.81 223.98-24.43L223.98-24.43L223.98-24.43Q223.98-26.14 222.89-27.12L222.89-27.12L222.89-27.12Q221.79-28.10 220.24-28.10L220.24-28.10L204.44-28.10L204.44-28.10Q202.65-28.10 201.68-27.00L201.68-27.00L201.68-27.00Q200.70-25.91 200.70-24.29L200.70-24.29L200.70-12.06L200.70-12.06Q200.70-10.31 201.79-9.33L201.79-9.33L201.79-9.33Q202.89-8.36 204.51-8.36L204.51-8.36L220.24-8.36L220.24 0L204.44 0L204.44 0Q202.62 0 200.51-0.64L200.51-0.64L200.51-0.64Q198.41-1.28 196.61-2.71L196.61-2.71L196.61-2.71Q194.80-4.14 193.59-6.45L193.59-6.45L193.59-6.45Q192.38-8.76 192.38-12.06L192.38-12.06L192.38-24.36L192.38-24.36Q192.38-26.18 193.02-28.28L193.02-28.28L193.02-28.28Q193.66-30.39 195.09-32.19L195.09-32.19L195.09-32.19Q196.52-33.99 198.83-35.21L198.83-35.21L198.83-35.21Q201.14-36.42 204.44-36.42L204.44-36.42L220.24-36.42L220.24-36.42Q222.06-36.42 224.17-35.78L224.17-35.78L224.17-35.78Q226.27-35.14 228.07-33.71L228.07-33.71L228.07-33.71Q229.88-32.28 231.09-29.97L231.09-29.97L231.09-29.97Q232.30-27.66 232.30-24.36ZM270.07-36.42L270.07-27.66L250.36-27.66L250.36-27.66Q248.58-27.66 247.67-26.77L247.67-26.77L247.67-26.77Q246.76-25.88 246.76-24.16L246.76-24.16L246.76 0L238.00 0L238.00-24.16L238.00-24.16Q238.00-26.41 238.57-28.20L238.57-28.20L238.57-28.20Q239.14-29.99 240.10-31.35L240.10-31.35L240.10-31.35Q241.06-32.71 242.31-33.67L242.31-33.67L242.31-33.67Q243.56-34.63 244.92-35.24L244.92-35.24L244.92-35.24Q246.28-35.85 247.68-36.13L247.68-36.13L247.68-36.13Q249.08-36.42 250.29-36.42L250.29-36.42L270.07-36.42ZM315.99-24.16L315.99-12.30L315.99-12.30Q315.99-11.05 315.71-9.67L315.71-9.67L315.71-9.67Q315.42-8.29 314.81-6.92L314.81-6.92L314.81-6.92Q314.21-5.56 313.25-4.31L313.25-4.31L313.25-4.31Q312.29-3.07 310.92-2.11L310.92-2.11L310.92-2.11Q309.56-1.15 307.77-0.57L307.77-0.57L307.77-0.57Q305.99 0 303.73 0L303.73 0L287.93 0L287.93 0Q286.68 0 285.30-0.29L285.30-0.29L285.30-0.29Q283.92-0.57 282.55-1.18L282.55-1.18L282.55-1.18Q281.19-1.79 279.94-2.75L279.94-2.75L279.94-2.75Q278.70-3.71 277.74-5.07L277.74-5.07L277.74-5.07Q276.77-6.44 276.20-8.24L276.20-8.24L276.20-8.24Q275.63-10.04 275.63-12.30L275.63-12.30L275.63-51.82L284.39-51.82L284.39-12.30L284.39-12.30Q284.39-10.68 285.40-9.72L285.40-9.72L285.40-9.72Q286.41-8.76 287.93-8.76L287.93-8.76L303.73-8.76L303.73-8.76Q305.38-8.76 306.31-9.74L306.31-9.74L306.31-9.74Q307.23-10.71 307.23-12.30L307.23-12.30L307.23-24.16L307.23-24.16Q307.23-25.81 306.25-26.73L306.25-26.73L306.25-26.73Q305.28-27.66 303.73-27.66L303.73-27.66L287.93-27.66L287.93-36.42L303.73-36.42L303.73-36.42Q304.97-36.42 306.36-36.13L306.36-36.13L306.36-36.13Q307.74-35.85 309.10-35.24L309.10-35.24L309.10-35.24Q310.47-34.63 311.71-33.67L311.71-33.67L311.71-33.67Q312.96-32.71 313.90-31.35L313.90-31.35L313.90-31.35Q314.85-29.99 315.42-28.20L315.42-28.20L315.42-28.20Q315.99-26.41 315.99-24.16L315.99-24.16ZM363.09-24.16L363.09-12.30L363.09-12.30Q363.09-10.04 362.52-8.24L362.52-8.24L362.52-8.24Q361.95-6.44 361.00-5.07L361.00-5.07L361.00-5.07Q360.06-3.71 358.81-2.75L358.81-2.75L358.81-2.75Q357.57-1.79 356.20-1.18L356.20-1.18L356.20-1.18Q354.84-0.57 353.44-0.29L353.44-0.29L353.44-0.29Q352.04 0 350.79 0L350.79 0L334.99 0L334.99 0Q333.17 0 331.02-0.64L331.02-0.64L331.02-0.64Q328.86-1.28 327.03-2.75L327.03-2.75L327.03-2.75Q325.19-4.21 323.96-6.55L323.96-6.55L323.96-6.55Q322.73-8.89 322.73-12.30L322.73-12.30L322.73-24.16L322.73-24.16Q322.73-27.53 323.96-29.87L323.96-29.87L323.96-29.87Q325.19-32.21 327.03-33.67L327.03-33.67L327.03-33.67Q328.86-35.14 331.02-35.78L331.02-35.78L331.02-35.78Q333.17-36.42 334.99-36.42L334.99-36.42L350.79-36.42L350.79-36.42Q354.16-36.42 356.52-35.21L356.52-35.21L356.52-35.21Q358.88-33.99 360.33-32.16L360.33-32.16L360.33-32.16Q361.78-30.32 362.44-28.17L362.44-28.17L362.44-28.17Q363.09-26.01 363.09-24.16L363.09-24.16ZM354.33-12.30L354.33-24.09L354.33-24.09Q354.33-25.91 353.42-26.78L353.42-26.78L353.42-26.78Q352.51-27.66 350.79-27.66L350.79-27.66L335.06-27.66L335.06-27.66Q333.31-27.66 332.40-26.77L332.40-26.77L332.40-26.77Q331.49-25.88 331.49-24.16L331.49-24.16L331.49-12.30L331.49-12.30Q331.49-10.58 332.40-9.67L332.40-9.67L332.40-9.67Q333.31-8.76 335.06-8.76L335.06-8.76L350.79-8.76L350.79-8.76Q352.58-8.76 353.46-9.67L353.46-9.67L353.46-9.67Q354.33-10.58 354.33-12.30L354.33-12.30ZM408.14-24.36L408.14-12.06L408.14-12.06Q408.14-10.24 407.50-8.14L407.50-8.14L407.50-8.14Q406.86-6.03 405.43-4.23L405.43-4.23L405.43-4.23Q403.99-2.43 401.69-1.21L401.69-1.21L401.69-1.21Q399.38 0 396.08 0L396.08 0L380.27 0L380.27 0Q378.46 0 376.35-0.64L376.35-0.64L376.35-0.64Q374.24-1.28 372.44-2.71L372.44-2.71L372.44-2.71Q370.64-4.14 369.43-6.45L369.43-6.45L369.43-6.45Q368.21-8.76 368.21-12.06L368.21-12.06L368.21-12.06Q368.21-13.88 368.85-16.00L368.85-16.00L368.85-16.00Q369.49-18.13 370.93-19.93L370.93-19.93L370.93-19.93Q372.36-21.73 374.67-22.94L374.67-22.94L374.67-22.94Q376.97-24.16 380.27-24.16L380.27-24.16L396.08-24.16L396.08-15.80L380.27-15.80L380.27-15.80Q378.49-15.80 377.51-14.71L377.51-14.71L377.51-14.71Q376.54-13.61 376.54-11.99L376.54-11.99L376.54-11.99Q376.54-10.28 377.66-9.32L377.66-9.32L377.66-9.32Q378.79-8.36 380.34-8.36L380.34-8.36L396.08-8.36L396.08-8.36Q397.86-8.36 398.84-9.43L398.84-9.43L398.84-9.43Q399.82-10.51 399.82-12.13L399.82-12.13L399.82-24.36L399.82-24.36Q399.82-26.08 398.75-27.09L398.75-27.09L398.75-27.09Q397.69-28.10 396.08-28.10L396.08-28.10L376.84-28.10L376.84-36.42L396.08-36.42L396.08-36.42Q397.90-36.42 400.00-35.78L400.00-35.78L400.00-35.78Q402.11-35.14 403.91-33.71L403.91-33.71L403.91-33.71Q405.71-32.28 406.92-29.97L406.92-29.97L406.92-29.97Q408.14-27.66 408.14-24.36L408.14-24.36ZM447.49-36.42L447.49-27.66L427.78-27.66L427.78-27.66Q425.99-27.66 425.08-26.77L425.08-26.77L425.08-26.77Q424.17-25.88 424.17-24.16L424.17-24.16L424.17 0L415.42 0L415.42-24.16L415.42-24.16Q415.42-26.41 415.99-28.20L415.99-28.20L415.99-28.20Q416.56-29.99 417.52-31.35L417.52-31.35L417.52-31.35Q418.48-32.71 419.73-33.67L419.73-33.67L419.73-33.67Q420.97-34.63 422.34-35.24L422.34-35.24L422.34-35.24Q423.70-35.85 425.10-36.13L425.10-36.13L425.10-36.13Q426.50-36.42 427.71-36.42L427.71-36.42L447.49-36.42ZM493.07-51.82L493.07-12.30L493.07-12.30Q493.07-10.04 492.50-8.24L492.50-8.24L492.50-8.24Q491.93-6.44 490.98-5.07L490.98-5.07L490.98-5.07Q490.04-3.71 488.79-2.75L488.79-2.75L488.79-2.75Q487.55-1.79 486.18-1.18L486.18-1.18L486.18-1.18Q484.82-0.57 483.42-0.29L483.42-0.29L483.42-0.29Q482.02 0 480.78 0L480.78 0L464.98 0L464.98 0Q462.72 0 460.93-0.57L460.93-0.57L460.93-0.57Q459.15-1.15 457.78-2.11L457.78-2.11L457.78-2.11Q456.42-3.07 455.46-4.31L455.46-4.31L455.46-4.31Q454.50-5.56 453.89-6.92L453.89-6.92L453.89-6.92Q453.28-8.29 453.00-9.69L453.00-9.69L453.00-9.69Q452.71-11.08 452.71-12.30L452.71-12.30L452.71-24.16L452.71-24.16Q452.71-27.53 453.94-29.87L453.94-29.87L453.94-29.87Q455.17-32.21 457.01-33.67L457.01-33.67L457.01-33.67Q458.84-35.14 461.00-35.78L461.00-35.78L461.00-35.78Q463.16-36.42 464.98-36.42L464.98-36.42L480.78-36.42L480.78-27.66L465.04-27.66L465.04-27.66Q463.29-27.66 462.38-26.77L462.38-26.77L462.38-26.77Q461.47-25.88 461.47-24.16L461.47-24.16L461.47-12.36L461.47-12.36Q461.47-10.58 462.36-9.67L462.36-9.67L462.36-9.67Q463.26-8.76 464.98-8.76L464.98-8.76L480.78-8.76L480.78-8.76Q482.56-8.76 483.44-9.67L483.44-9.67L483.44-9.67Q484.31-10.58 484.31-12.30L484.31-12.30L484.31-51.82L493.07-51.82Z" fill="url(#editing-shiny-gradient)"></path></g></g><g filter="url(#editing-shiny2)"><g transform="translate(0.9199943542480469, 100.90999984741211)"><path d="M49.46-8.76L49.46 0L9.50 0L9.50 0Q8.56 0 7.75-0.34L7.75-0.34L7.75-0.34Q6.94-0.67 6.35-1.26L6.35-1.26L6.35-1.26Q5.76-1.85 5.42-2.66L5.42-2.66L5.42-2.66Q5.09-3.47 5.09-4.41L5.09-4.41L5.09-48.31L13.85-48.31L13.85-8.76L49.46-8.76ZM94.10-24.36L94.10-24.36L94.10-24.36Q94.10-22.54 93.46-20.43L93.46-20.43L93.46-20.43Q92.82-18.33 91.39-16.53L91.39-16.53L91.39-16.53Q89.96-14.72 87.65-13.51L87.65-13.51L87.65-13.51Q85.34-12.30 82.04-12.30L82.04-12.30L66.24-12.30L66.24-20.62L82.04-20.62L82.04-20.62Q83.82-20.62 84.80-21.71L84.80-21.71L84.80-21.71Q85.78-22.81 85.78-24.43L85.78-24.43L85.78-24.43Q85.78-26.14 84.68-27.12L84.68-27.12L84.68-27.12Q83.59-28.10 82.04-28.10L82.04-28.10L66.24-28.10L66.24-28.10Q64.45-28.10 63.47-27.00L63.47-27.00L63.47-27.00Q62.50-25.91 62.50-24.29L62.50-24.29L62.50-12.06L62.50-12.06Q62.50-10.31 63.59-9.33L63.59-9.33L63.59-9.33Q64.69-8.36 66.30-8.36L66.30-8.36L82.04-8.36L82.04 0L66.24 0L66.24 0Q64.42 0 62.31-0.64L62.31-0.64L62.31-0.64Q60.21-1.28 58.40-2.71L58.40-2.71L58.40-2.71Q56.60-4.14 55.39-6.45L55.39-6.45L55.39-6.45Q54.18-8.76 54.18-12.06L54.18-12.06L54.18-24.36L54.18-24.36Q54.18-26.18 54.82-28.28L54.82-28.28L54.82-28.28Q55.46-30.39 56.89-32.19L56.89-32.19L56.89-32.19Q58.32-33.99 60.63-35.21L60.63-35.21L60.63-35.21Q62.94-36.42 66.24-36.42L66.24-36.42L82.04-36.42L82.04-36.42Q83.86-36.42 85.96-35.78L85.96-35.78L85.96-35.78Q88.07-35.14 89.87-33.71L89.87-33.71L89.87-33.71Q91.67-32.28 92.89-29.97L92.89-29.97L92.89-29.97Q94.10-27.66 94.10-24.36ZM137.33-24.36L137.33-12.06L137.33-12.06Q137.33-10.24 136.69-8.14L136.69-8.14L136.69-8.14Q136.05-6.03 134.61-4.23L134.61-4.23L134.61-4.23Q133.18-2.43 130.87-1.21L130.87-1.21L130.87-1.21Q128.57 0 125.26 0L125.26 0L109.46 0L109.46 0Q107.64 0 105.54-0.64L105.54-0.64L105.54-0.64Q103.43-1.28 101.63-2.71L101.63-2.71L101.63-2.71Q99.83-4.14 98.61-6.45L98.61-6.45L98.61-6.45Q97.40-8.76 97.40-12.06L97.40-12.06L97.40-12.06Q97.40-13.88 98.04-16.00L98.04-16.00L98.04-16.00Q98.68-18.13 100.11-19.93L100.11-19.93L100.11-19.93Q101.55-21.73 103.85-22.94L103.85-22.94L103.85-22.94Q106.16-24.16 109.46-24.16L109.46-24.16L125.26-24.16L125.26-15.80L109.46-15.80L109.46-15.80Q107.68-15.80 106.70-14.71L106.70-14.71L106.70-14.71Q105.72-13.61 105.72-11.99L105.72-11.99L105.72-11.99Q105.72-10.28 106.85-9.32L106.85-9.32L106.85-9.32Q107.98-8.36 109.53-8.36L109.53-8.36L125.26-8.36L125.26-8.36Q127.05-8.36 128.03-9.43L128.03-9.43L128.03-9.43Q129.00-10.51 129.00-12.13L129.00-12.13L129.00-24.36L129.00-24.36Q129.00-26.08 127.94-27.09L127.94-27.09L127.94-27.09Q126.88-28.10 125.26-28.10L125.26-28.10L106.03-28.10L106.03-36.42L125.26-36.42L125.26-36.42Q127.08-36.42 129.19-35.78L129.19-35.78L129.19-35.78Q131.30-35.14 133.10-33.71L133.10-33.71L133.10-33.71Q134.90-32.28 136.11-29.97L136.11-29.97L136.11-29.97Q137.33-27.66 137.33-24.36L137.33-24.36ZM184.76-51.82L184.76-12.30L184.76-12.30Q184.76-10.04 184.19-8.24L184.19-8.24L184.19-8.24Q183.62-6.44 182.67-5.07L182.67-5.07L182.67-5.07Q181.73-3.71 180.48-2.75L180.48-2.75L180.48-2.75Q179.24-1.79 177.87-1.18L177.87-1.18L177.87-1.18Q176.51-0.57 175.11-0.29L175.11-0.29L175.11-0.29Q173.71 0 172.47 0L172.47 0L156.67 0L156.67 0Q154.41 0 152.62-0.57L152.62-0.57L152.62-0.57Q150.84-1.15 149.47-2.11L149.47-2.11L149.47-2.11Q148.11-3.07 147.15-4.31L147.15-4.31L147.15-4.31Q146.19-5.56 145.58-6.92L145.58-6.92L145.58-6.92Q144.97-8.29 144.69-9.69L144.69-9.69L144.69-9.69Q144.40-11.08 144.40-12.30L144.40-12.30L144.40-24.16L144.40-24.16Q144.40-27.53 145.63-29.87L145.63-29.87L145.63-29.87Q146.86-32.21 148.70-33.67L148.70-33.67L148.70-33.67Q150.53-35.14 152.69-35.78L152.69-35.78L152.69-35.78Q154.85-36.42 156.67-36.42L156.67-36.42L172.47-36.42L172.47-27.66L156.73-27.66L156.73-27.66Q154.98-27.66 154.07-26.77L154.07-26.77L154.07-26.77Q153.16-25.88 153.16-24.16L153.16-24.16L153.16-12.36L153.16-12.36Q153.16-10.58 154.05-9.67L154.05-9.67L154.05-9.67Q154.95-8.76 156.67-8.76L156.67-8.76L172.47-8.76L172.47-8.76Q174.25-8.76 175.13-9.67L175.13-9.67L175.13-9.67Q176.00-10.58 176.00-12.30L176.00-12.30L176.00-51.82L184.76-51.82ZM232.30-24.36L232.30-24.36L232.30-24.36Q232.30-22.54 231.66-20.43L231.66-20.43L231.66-20.43Q231.02-18.33 229.59-16.53L229.59-16.53L229.59-16.53Q228.16-14.72 225.85-13.51L225.85-13.51L225.85-13.51Q223.54-12.30 220.24-12.30L220.24-12.30L204.44-12.30L204.44-20.62L220.24-20.62L220.24-20.62Q222.03-20.62 223.00-21.71L223.00-21.71L223.00-21.71Q223.98-22.81 223.98-24.43L223.98-24.43L223.98-24.43Q223.98-26.14 222.89-27.12L222.89-27.12L222.89-27.12Q221.79-28.10 220.24-28.10L220.24-28.10L204.44-28.10L204.44-28.10Q202.65-28.10 201.68-27.00L201.68-27.00L201.68-27.00Q200.70-25.91 200.70-24.29L200.70-24.29L200.70-12.06L200.70-12.06Q200.70-10.31 201.79-9.33L201.79-9.33L201.79-9.33Q202.89-8.36 204.51-8.36L204.51-8.36L220.24-8.36L220.24 0L204.44 0L204.44 0Q202.62 0 200.51-0.64L200.51-0.64L200.51-0.64Q198.41-1.28 196.61-2.71L196.61-2.71L196.61-2.71Q194.80-4.14 193.59-6.45L193.59-6.45L193.59-6.45Q192.38-8.76 192.38-12.06L192.38-12.06L192.38-24.36L192.38-24.36Q192.38-26.18 193.02-28.28L193.02-28.28L193.02-28.28Q193.66-30.39 195.09-32.19L195.09-32.19L195.09-32.19Q196.52-33.99 198.83-35.21L198.83-35.21L198.83-35.21Q201.14-36.42 204.44-36.42L204.44-36.42L220.24-36.42L220.24-36.42Q222.06-36.42 224.17-35.78L224.17-35.78L224.17-35.78Q226.27-35.14 228.07-33.71L228.07-33.71L228.07-33.71Q229.88-32.28 231.09-29.97L231.09-29.97L231.09-29.97Q232.30-27.66 232.30-24.36ZM270.07-36.42L270.07-27.66L250.36-27.66L250.36-27.66Q248.58-27.66 247.67-26.77L247.67-26.77L247.67-26.77Q246.76-25.88 246.76-24.16L246.76-24.16L246.76 0L238.00 0L238.00-24.16L238.00-24.16Q238.00-26.41 238.57-28.20L238.57-28.20L238.57-28.20Q239.14-29.99 240.10-31.35L240.10-31.35L240.10-31.35Q241.06-32.71 242.31-33.67L242.31-33.67L242.31-33.67Q243.56-34.63 244.92-35.24L244.92-35.24L244.92-35.24Q246.28-35.85 247.68-36.13L247.68-36.13L247.68-36.13Q249.08-36.42 250.29-36.42L250.29-36.42L270.07-36.42ZM315.99-24.16L315.99-12.30L315.99-12.30Q315.99-11.05 315.71-9.67L315.71-9.67L315.71-9.67Q315.42-8.29 314.81-6.92L314.81-6.92L314.81-6.92Q314.21-5.56 313.25-4.31L313.25-4.31L313.25-4.31Q312.29-3.07 310.92-2.11L310.92-2.11L310.92-2.11Q309.56-1.15 307.77-0.57L307.77-0.57L307.77-0.57Q305.99 0 303.73 0L303.73 0L287.93 0L287.93 0Q286.68 0 285.30-0.29L285.30-0.29L285.30-0.29Q283.92-0.57 282.55-1.18L282.55-1.18L282.55-1.18Q281.19-1.79 279.94-2.75L279.94-2.75L279.94-2.75Q278.70-3.71 277.74-5.07L277.74-5.07L277.74-5.07Q276.77-6.44 276.20-8.24L276.20-8.24L276.20-8.24Q275.63-10.04 275.63-12.30L275.63-12.30L275.63-51.82L284.39-51.82L284.39-12.30L284.39-12.30Q284.39-10.68 285.40-9.72L285.40-9.72L285.40-9.72Q286.41-8.76 287.93-8.76L287.93-8.76L303.73-8.76L303.73-8.76Q305.38-8.76 306.31-9.74L306.31-9.74L306.31-9.74Q307.23-10.71 307.23-12.30L307.23-12.30L307.23-24.16L307.23-24.16Q307.23-25.81 306.25-26.73L306.25-26.73L306.25-26.73Q305.28-27.66 303.73-27.66L303.73-27.66L287.93-27.66L287.93-36.42L303.73-36.42L303.73-36.42Q304.97-36.42 306.36-36.13L306.36-36.13L306.36-36.13Q307.74-35.85 309.10-35.24L309.10-35.24L309.10-35.24Q310.47-34.63 311.71-33.67L311.71-33.67L311.71-33.67Q312.96-32.71 313.90-31.35L313.90-31.35L313.90-31.35Q314.85-29.99 315.42-28.20L315.42-28.20L315.42-28.20Q315.99-26.41 315.99-24.16L315.99-24.16ZM363.09-24.16L363.09-12.30L363.09-12.30Q363.09-10.04 362.52-8.24L362.52-8.24L362.52-8.24Q361.95-6.44 361.00-5.07L361.00-5.07L361.00-5.07Q360.06-3.71 358.81-2.75L358.81-2.75L358.81-2.75Q357.57-1.79 356.20-1.18L356.20-1.18L356.20-1.18Q354.84-0.57 353.44-0.29L353.44-0.29L353.44-0.29Q352.04 0 350.79 0L350.79 0L334.99 0L334.99 0Q333.17 0 331.02-0.64L331.02-0.64L331.02-0.64Q328.86-1.28 327.03-2.75L327.03-2.75L327.03-2.75Q325.19-4.21 323.96-6.55L323.96-6.55L323.96-6.55Q322.73-8.89 322.73-12.30L322.73-12.30L322.73-24.16L322.73-24.16Q322.73-27.53 323.96-29.87L323.96-29.87L323.96-29.87Q325.19-32.21 327.03-33.67L327.03-33.67L327.03-33.67Q328.86-35.14 331.02-35.78L331.02-35.78L331.02-35.78Q333.17-36.42 334.99-36.42L334.99-36.42L350.79-36.42L350.79-36.42Q354.16-36.42 356.52-35.21L356.52-35.21L356.52-35.21Q358.88-33.99 360.33-32.16L360.33-32.16L360.33-32.16Q361.78-30.32 362.44-28.17L362.44-28.17L362.44-28.17Q363.09-26.01 363.09-24.16L363.09-24.16ZM354.33-12.30L354.33-24.09L354.33-24.09Q354.33-25.91 353.42-26.78L353.42-26.78L353.42-26.78Q352.51-27.66 350.79-27.66L350.79-27.66L335.06-27.66L335.06-27.66Q333.31-27.66 332.40-26.77L332.40-26.77L332.40-26.77Q331.49-25.88 331.49-24.16L331.49-24.16L331.49-12.30L331.49-12.30Q331.49-10.58 332.40-9.67L332.40-9.67L332.40-9.67Q333.31-8.76 335.06-8.76L335.06-8.76L350.79-8.76L350.79-8.76Q352.58-8.76 353.46-9.67L353.46-9.67L353.46-9.67Q354.33-10.58 354.33-12.30L354.33-12.30ZM408.14-24.36L408.14-12.06L408.14-12.06Q408.14-10.24 407.50-8.14L407.50-8.14L407.50-8.14Q406.86-6.03 405.43-4.23L405.43-4.23L405.43-4.23Q403.99-2.43 401.69-1.21L401.69-1.21L401.69-1.21Q399.38 0 396.08 0L396.08 0L380.27 0L380.27 0Q378.46 0 376.35-0.64L376.35-0.64L376.35-0.64Q374.24-1.28 372.44-2.71L372.44-2.71L372.44-2.71Q370.64-4.14 369.43-6.45L369.43-6.45L369.43-6.45Q368.21-8.76 368.21-12.06L368.21-12.06L368.21-12.06Q368.21-13.88 368.85-16.00L368.85-16.00L368.85-16.00Q369.49-18.13 370.93-19.93L370.93-19.93L370.93-19.93Q372.36-21.73 374.67-22.94L374.67-22.94L374.67-22.94Q376.97-24.16 380.27-24.16L380.27-24.16L396.08-24.16L396.08-15.80L380.27-15.80L380.27-15.80Q378.49-15.80 377.51-14.71L377.51-14.71L377.51-14.71Q376.54-13.61 376.54-11.99L376.54-11.99L376.54-11.99Q376.54-10.28 377.66-9.32L377.66-9.32L377.66-9.32Q378.79-8.36 380.34-8.36L380.34-8.36L396.08-8.36L396.08-8.36Q397.86-8.36 398.84-9.43L398.84-9.43L398.84-9.43Q399.82-10.51 399.82-12.13L399.82-12.13L399.82-24.36L399.82-24.36Q399.82-26.08 398.75-27.09L398.75-27.09L398.75-27.09Q397.69-28.10 396.08-28.10L396.08-28.10L376.84-28.10L376.84-36.42L396.08-36.42L396.08-36.42Q397.90-36.42 400.00-35.78L400.00-35.78L400.00-35.78Q402.11-35.14 403.91-33.71L403.91-33.71L403.91-33.71Q405.71-32.28 406.92-29.97L406.92-29.97L406.92-29.97Q408.14-27.66 408.14-24.36L408.14-24.36ZM447.49-36.42L447.49-27.66L427.78-27.66L427.78-27.66Q425.99-27.66 425.08-26.77L425.08-26.77L425.08-26.77Q424.17-25.88 424.17-24.16L424.17-24.16L424.17 0L415.42 0L415.42-24.16L415.42-24.16Q415.42-26.41 415.99-28.20L415.99-28.20L415.99-28.20Q416.56-29.99 417.52-31.35L417.52-31.35L417.52-31.35Q418.48-32.71 419.73-33.67L419.73-33.67L419.73-33.67Q420.97-34.63 422.34-35.24L422.34-35.24L422.34-35.24Q423.70-35.85 425.10-36.13L425.10-36.13L425.10-36.13Q426.50-36.42 427.71-36.42L427.71-36.42L447.49-36.42ZM493.07-51.82L493.07-12.30L493.07-12.30Q493.07-10.04 492.50-8.24L492.50-8.24L492.50-8.24Q491.93-6.44 490.98-5.07L490.98-5.07L490.98-5.07Q490.04-3.71 488.79-2.75L488.79-2.75L488.79-2.75Q487.55-1.79 486.18-1.18L486.18-1.18L486.18-1.18Q484.82-0.57 483.42-0.29L483.42-0.29L483.42-0.29Q482.02 0 480.78 0L480.78 0L464.98 0L464.98 0Q462.72 0 460.93-0.57L460.93-0.57L460.93-0.57Q459.15-1.15 457.78-2.11L457.78-2.11L457.78-2.11Q456.42-3.07 455.46-4.31L455.46-4.31L455.46-4.31Q454.50-5.56 453.89-6.92L453.89-6.92L453.89-6.92Q453.28-8.29 453.00-9.69L453.00-9.69L453.00-9.69Q452.71-11.08 452.71-12.30L452.71-12.30L452.71-24.16L452.71-24.16Q452.71-27.53 453.94-29.87L453.94-29.87L453.94-29.87Q455.17-32.21 457.01-33.67L457.01-33.67L457.01-33.67Q458.84-35.14 461.00-35.78L461.00-35.78L461.00-35.78Q463.16-36.42 464.98-36.42L464.98-36.42L480.78-36.42L480.78-27.66L465.04-27.66L465.04-27.66Q463.29-27.66 462.38-26.77L462.38-26.77L462.38-26.77Q461.47-25.88 461.47-24.16L461.47-24.16L461.47-12.36L461.47-12.36Q461.47-10.58 462.36-9.67L462.36-9.67L462.36-9.67Q463.26-8.76 464.98-8.76L464.98-8.76L480.78-8.76L480.78-8.76Q482.56-8.76 483.44-9.67L483.44-9.67L483.44-9.67Q484.31-10.58 484.31-12.30L484.31-12.30L484.31-51.82L493.07-51.82Z" fill="url(#editing-shiny-gradient2)"></path></g></g><style>text {
  font-size: 64px;
  font-family: Arial Black;
  dominant-baseline: central;
  text-anchor: middle;
}</style></svg>