<svg width="313.1437255859375px" height="100.81875px" xmlns="http://www.w3.org/2000/svg" viewBox="93.42813720703126 -24.409374999999997 313.1437255859375 198.81875" style="background: rgba(0, 0, 0, 0);" preserveAspectRatio="xMidYMid"><defs><linearGradient id="editing-gradient-gradient" x1="0" x2="1" y1="0.5" y2="0.5" gradientUnits="objectBoundingBox"><stop offset="0" stop-color="#f0f"></stop><stop offset="1" stop-color="#0ff"></stop></linearGradient></defs><g><g transform="translate(156.8309350013733, 138.9746856689453)"><path d="M20.74-27.46L20.74-27.46L20.74-27.46Q20.15-26.35 13.60-13.09L13.60-13.09L13.60-13.09Q9.27-4.25 4.89 0.30L4.89 0.30L4.89 0.30Q0.51 4.85-1.79 4.85L-1.79 4.85L-1.79 4.85Q-2.81 4.85-2.81 3.91L-2.81 3.91L-2.55 2.89L-2.55 2.89Q-1.62 0.34 3.27-9.10L3.27-9.10L3.27-9.10Q8.16-18.53 12.41-25.84L12.41-25.84L12.41-25.84Q16.41-32.81 20.23-39.31L20.23-39.31L20.23-39.31Q24.06-45.82 25.93-48.88L25.93-48.88L27.80-51.94L27.80-51.94Q27.97-52.19 28.22-52.62L28.22-52.62L28.22-52.62Q28.48-53.04 29.37-54.15L29.37-54.15L29.37-54.15Q30.26-55.25 31.20-56.06L31.20-56.06L31.20-56.06Q32.13-56.87 33.41-57.55L33.41-57.55L33.41-57.55Q34.68-58.23 35.87-58.23L35.87-58.23L35.87-58.23Q36.98-58.23 36.98-57.63L36.98-57.63L36.98-57.63Q36.98-56.87 35.96-55.42L35.96-55.42L35.96-55.42Q29.58-44.54 22.36-30.69L22.36-30.69L22.36-30.69Q22.27-30.52 22.27-30.35L22.27-30.35L22.27-30.35Q22.27-30.09 22.61-30.09L22.61-30.09L22.61-30.09Q27.97-30.09 32.51-32.13L32.51-32.13L32.51-32.13Q37.06-34.17 39.91-37.44L39.91-37.44L39.91-37.44Q42.76-40.72 44.33-44.46L44.33-44.46L44.33-44.46Q45.90-48.20 45.90-51.85L45.90-51.85L45.90-51.85Q45.90-57.04 41.99-59.67L41.99-59.67L41.99-59.67Q38.08-62.31 32.81-62.31L32.81-62.31L32.81-62.31Q28.82-62.31 25.03-61.12L25.03-61.12L25.03-61.12Q21.25-59.93 18.40-57.04L18.40-57.04L18.40-57.04Q15.56-54.15 15.56-50.15L15.56-50.15L15.56-50.15Q15.56-47.77 16.83-45.56L16.83-45.56L16.83-45.56Q17.26-44.71 17.26-44.37L17.26-44.37L17.26-44.37Q17.26-43.86 16.58-43.86L16.58-43.86L16.58-43.86Q16.41-43.86 15.90-44.03L15.90-44.03L15.90-44.03Q15.64-44.12 15.22-44.37L15.22-44.37L15.22-44.37Q14.79-44.63 13.69-45.39L13.69-45.39L13.69-45.39Q12.58-46.16 11.73-47.01L11.73-47.01L11.73-47.01Q10.88-47.86 10.20-49.26L10.20-49.26L10.20-49.26Q9.52-50.66 9.52-52.11L9.52-52.11L9.52-52.11Q9.52-57.38 16.02-60.95L16.02-60.95L16.02-60.95Q22.53-64.52 30.77-64.52L30.77-64.52L30.77-64.52Q34.77-64.52 38.38-63.84L38.38-63.84L38.38-63.84Q41.99-63.16 45.43-61.67L45.43-61.67L45.43-61.67Q48.88-60.18 50.92-57.38L50.92-57.38L50.92-57.38Q52.96-54.57 52.96-50.75L52.96-50.75L52.96-50.75Q52.96-45.05 50.02-40.50L50.02-40.50L50.02-40.50Q47.09-35.96 42.37-33.28L42.37-33.28L42.37-33.28Q37.66-30.60 32.30-29.20L32.30-29.20L32.30-29.20Q26.95-27.80 21.51-27.80L21.51-27.80L21.51-27.80Q21.42-27.88 21.25-27.88L21.25-27.88L21.25-27.88Q20.91-27.88 20.74-27.46ZM59.76-41.40L59.76-41.40L59.76-41.40Q65.79-45.65 70.59-51.04L70.59-51.04L70.59-51.04Q75.40-56.44 77.90-60.99L77.90-60.99L77.90-60.99Q80.41-65.54 81.69-68.85L81.69-68.85L81.69-68.85Q82.96-72.17 82.96-73.61L82.96-73.61L82.96-73.61Q82.96-74.46 82.37-74.46L82.37-74.46L82.37-74.46Q81.18-74.46 79.48-72.76L79.48-72.76L79.48-72.76Q76.25-69.53 72.17-63.41L72.17-63.41L72.17-63.41Q68.09-57.29 65.58-52.91L65.58-52.91L65.58-52.91Q63.07-48.54 59.08-41.23L59.08-41.23L59.08-41.23Q59.42-41.23 59.76-41.40ZM50.66-12.84L50.66-12.84L50.66-12.84Q54.23-16.41 60.10-23.12L60.10-23.12L60.10-23.12Q60.35-23.38 60.52-23.38L60.52-23.38L60.52-23.38Q60.69-23.38 60.69-23.04L60.69-23.04L60.69-23.04Q60.69-21.42 59.42-19.89L59.42-19.89L59.42-19.89Q53.13-12.92 48.28-8.25L48.28-8.25L48.28-8.25Q37.66 1.79 34.77 1.79L34.77 1.79L34.77 1.79Q33.49 1.79 33.49 0L33.49 0L33.49 0Q33.49-0.94 33.70-2.04L33.70-2.04L33.70-2.04Q33.92-3.15 34.43-4.46L34.43-4.46L34.43-4.46Q34.94-5.78 35.32-6.67L35.32-6.67L35.32-6.67Q35.70-7.57 36.42-9.22L36.42-9.22L36.42-9.22Q37.15-10.88 37.40-11.48L37.40-11.48L37.40-11.48Q39.78-16.83 52.02-39.70L52.02-39.70L52.02-39.70Q68.77-70.21 82.79-77.18L82.79-77.18L82.79-77.18Q84.83-78.20 86.87-78.20L86.87-78.20L86.87-78.20Q89.25-78.20 89.25-75.99L89.25-75.99L89.25-75.99Q89.25-70.89 85.77-64.81L85.77-64.81L85.77-64.81Q82.28-58.74 77.27-53.64L77.27-53.64L77.27-53.64Q72.25-48.54 67.45-44.71L67.45-44.71L67.45-44.71Q62.65-40.89 59.16-38.93L59.16-38.93L59.16-38.93Q58.65-38.76 58.23-38.17L58.23-38.17L58.23-38.17Q54.48-32.13 50.92-25.20L50.92-25.20L50.92-25.20Q47.35-18.28 45.56-14.28L45.56-14.28L43.86-10.37L43.86-10.37Q43.44-9.10 43.44-8.67L43.44-8.67L43.44-8.67Q43.44-7.91 44.03-7.91L44.03-7.91L44.03-7.91Q45.73-7.91 50.66-12.84ZM76.76-5.36L76.76-5.36L76.76-5.36Q69.70 1.10 67.06 1.10L67.06 1.10L67.06 1.10Q65.88 1.10 65.88-0.26L65.88-0.26L65.88-0.26Q65.88-1.96 67.36-5.44L67.36-5.44L67.36-5.44Q68.85-8.93 70.38-11.56L70.38-11.56L71.91-14.20L71.91-14.20Q72.25-14.79 72.25-14.96L72.25-14.96L72.25-14.96Q72.25-15.13 72.08-15.13L72.08-15.13L72.08-15.13Q71.74-15.13 70.81-14.20L70.81-14.20L70.81-14.20Q68.25-11.39 64.98-8.20L64.98-8.20L64.98-8.20Q61.71-5.02 59.67-3.23L59.67-3.23L57.72-1.53L57.72-1.53Q54.40 1.02 52.62 1.02L52.62 1.02L52.62 1.02Q50.75 1.02 50.75-1.87L50.75-1.87L50.75-1.87Q50.75-3.32 51.55-6.29L51.55-6.29L51.55-6.29Q52.36-9.27 52.79-10.29L52.79-10.29L52.79-10.29Q54.74-15.05 57.67-19.55L57.67-19.55L57.67-19.55Q60.61-24.06 64.60-28.18L64.60-28.18L64.60-28.18Q68.59-32.30 73.91-34.85L73.91-34.85L73.91-34.85Q79.22-37.40 84.92-37.40L84.92-37.40L84.92-37.40Q89.68-37.40 89.68-35.96L89.68-35.96L89.68-35.96Q89.68-35.11 87.55-35.11L87.55-35.11L87.55-35.11Q79.73-35.11 72.89-28.43L72.89-28.43L72.89-28.43Q66.05-21.76 61.80-13.09L61.80-13.09L61.80-13.09Q60.61-10.71 60.61-9.10L60.61-9.10L60.61-9.10Q60.61-8.16 61.20-8.16L61.20-8.16L61.20-8.16Q62.22-8.16 63.84-9.61L63.84-9.61L63.84-9.61Q64.86-10.54 66.60-12.07L66.60-12.07L66.60-12.07Q68.34-13.60 72.25-17.94L72.25-17.94L72.25-17.94Q76.16-22.27 78.46-26.01L78.46-26.01L78.46-26.01Q78.80-26.69 79.52-27.63L79.52-27.63L79.52-27.63Q80.24-28.56 82.28-30.13L82.28-30.13L82.28-30.13Q84.32-31.71 86.36-31.71L86.36-31.71L86.36-31.71Q87.47-31.71 87.47-31.11L87.47-31.11L87.47-31.11Q87.47-30.94 87.21-30.52L87.21-30.52L87.21-30.52Q86.87-29.84 85.30-27.12L85.30-27.12L85.30-27.12Q83.73-24.40 82.37-21.97L82.37-21.97L82.37-21.97Q81.01-19.55 79.48-16.70L79.48-16.70L79.48-16.70Q77.95-13.86 77.05-11.82L77.05-11.82L77.05-11.82Q76.16-9.78 76.16-9.10L76.16-9.10L76.16-9.10Q76.16-8.59 76.59-8.59L76.59-8.59L76.59-8.59Q77.86-8.59 82.79-13.52L82.79-13.52L82.79-13.52Q86.53-17.43 91.55-23.12L91.55-23.12L91.55-23.12Q91.80-23.38 91.97-23.38L91.97-23.38L91.97-23.38Q92.14-23.38 92.14-23.04L92.14-23.04L92.14-23.04Q92.14-21.42 90.87-19.89L90.87-19.89L90.87-19.89Q82.53-10.63 76.76-5.36ZM101.75-12.07L101.75-12.07L105.31-19.04L105.31-19.04Q105.31-19.30 105.14-19.30L105.14-19.30L105.14-19.30Q104.97-19.30 104.72-19.04L104.72-19.04L104.72-19.04Q101.58-15.39 98.09-11.86L98.09-11.86L98.09-11.86Q94.61-8.33 92.73-6.63L92.73-6.63L90.86-4.93L90.86-4.93Q84.49 1.10 81.86 1.10L81.86 1.10L81.86 1.10Q80.66 1.10 80.66-0.43L80.66-0.43L80.66-0.43Q80.66-2.13 82.03-5.57L82.03-5.57L82.03-5.57Q83.39-9.01 84.75-11.56L84.75-11.56L86.11-14.20L86.11-14.20Q93.25-27.54 96.64-32.05L96.64-32.05L96.64-32.05Q98.34-34.26 100.81-35.74L100.81-35.74L100.81-35.74Q103.28-37.23 104.64-37.23L104.64-37.23L104.64-37.23Q105.48-37.23 105.48-36.64L105.48-36.64L105.48-36.64Q105.48-36.30 105.14-35.70L105.14-35.70L105.14-35.70Q104.97-35.36 101.66-30.05L101.66-30.05L101.66-30.05Q98.34-24.74 96.31-20.91L96.31-20.91L96.31-20.91Q90.69-10.63 90.69-9.10L90.69-9.10L90.69-9.10Q90.69-8.50 91.20-8.50L91.20-8.50L91.20-8.50Q91.97-8.50 93.84-10.03L93.84-10.03L93.84-10.03Q99.36-14.79 106.00-22.87L106.00-22.87L106.00-22.87Q109.65-26.78 113.64-33.07L113.64-33.07L113.64-33.07Q114.75-34.77 116.92-36.00L116.92-36.00L116.92-36.00Q119.09-37.23 120.87-37.23L120.87-37.23L120.87-37.23Q121.64-37.23 121.64-36.55L121.64-36.55L120.95-34.94L120.95-34.94Q119.77-32.81 115.64-25.63L115.64-25.63L115.64-25.63Q111.52-18.45 111.01-17.51L111.01-17.51L111.01-17.51Q110.33-16.23 107.91-12.03L107.91-12.03L107.91-12.03Q105.48-7.82 104.47-6.04L104.47-6.04L104.47-6.04Q109.82-10.37 113.31-13.52L113.31-13.52L113.31-13.52Q117.05-17.43 122.06-23.12L122.06-23.12L122.06-23.12Q122.31-23.38 122.48-23.38L122.48-23.38L122.48-23.38Q122.66-23.38 122.66-23.04L122.66-23.04L122.66-23.04Q122.66-21.42 121.38-19.89L121.38-19.89L121.38-19.89Q117.64-15.81 114.92-12.92L114.92-12.92L114.92-12.92Q111.35-9.18 102.17-2.04L102.17-2.04L99.96 2.04L99.96 2.04Q83.55 32.22 77.35 41.31L77.35 41.31L77.35 41.31Q76.75 42.25 75.82 43.56L75.82 43.56L75.82 43.56Q74.88 44.88 72.76 47.13L72.76 47.13L72.76 47.13Q70.63 49.39 69.36 49.39L69.36 49.39L69.36 49.39Q67.32 49.39 67.32 43.52L67.32 43.52L67.32 43.52Q67.32 34.85 73.53 24.65L73.53 24.65L73.53 24.65Q80.24 13.69 94.27 2.13L94.27 2.13L94.27 2.13Q97.07-2.98 101.75-12.07ZM75.65 24.48L75.65 24.48L75.65 24.48Q74.97 25.50 74.03 27.16L74.03 27.16L74.03 27.16Q73.10 28.82 71.48 32.85L71.48 32.85L71.48 32.85Q69.87 36.89 69.87 39.61L69.87 39.61L69.87 39.61Q69.87 41.05 70.38 41.05L70.38 41.05L70.38 41.05Q70.80 41.05 71.66 40.25L71.66 40.25L71.66 40.25Q72.50 39.44 73.10 38.59L73.10 38.59L73.69 37.74L73.69 37.74Q82.11 24.57 91.97 6.29L91.97 6.29L91.97 6.29Q80.92 15.98 75.65 24.48ZM138.72-41.40L138.72-41.40L138.72-41.40Q144.75-45.65 149.56-51.04L149.56-51.04L149.56-51.04Q154.36-56.44 156.87-60.99L156.87-60.99L156.87-60.99Q159.38-65.54 160.65-68.85L160.65-68.85L160.65-68.85Q161.93-72.17 161.93-73.61L161.93-73.61L161.93-73.61Q161.93-74.46 161.33-74.46L161.33-74.46L161.33-74.46Q160.14-74.46 158.44-72.76L158.44-72.76L158.44-72.76Q155.21-69.53 151.13-63.41L151.13-63.41L151.13-63.41Q147.05-57.29 144.54-52.91L144.54-52.91L144.54-52.91Q142.03-48.54 138.04-41.23L138.04-41.23L138.04-41.23Q138.38-41.23 138.72-41.40ZM129.63-12.84L129.63-12.84L129.63-12.84Q133.19-16.41 139.06-23.12L139.06-23.12L139.06-23.12Q139.31-23.38 139.49-23.38L139.49-23.38L139.49-23.38Q139.66-23.38 139.66-23.04L139.66-23.04L139.66-23.04Q139.66-21.42 138.38-19.89L138.38-19.89L138.38-19.89Q132.09-12.92 127.25-8.25L127.25-8.25L127.25-8.25Q116.62 1.79 113.73 1.79L113.73 1.79L113.73 1.79Q112.45 1.79 112.45 0L112.45 0L112.45 0Q112.45-0.94 112.67-2.04L112.67-2.04L112.67-2.04Q112.88-3.15 113.39-4.46L113.39-4.46L113.39-4.46Q113.90-5.78 114.28-6.67L114.28-6.67L114.28-6.67Q114.67-7.57 115.39-9.22L115.39-9.22L115.39-9.22Q116.11-10.88 116.36-11.48L116.36-11.48L116.36-11.48Q118.75-16.83 130.99-39.70L130.99-39.70L130.99-39.70Q147.73-70.21 161.75-77.18L161.75-77.18L161.75-77.18Q163.80-78.20 165.84-78.20L165.84-78.20L165.84-78.20Q168.22-78.20 168.22-75.99L168.22-75.99L168.22-75.99Q168.22-70.89 164.73-64.81L164.73-64.81L164.73-64.81Q161.25-58.74 156.23-53.64L156.23-53.64L156.23-53.64Q151.22-48.54 146.41-44.71L146.41-44.71L146.41-44.71Q141.61-40.89 138.13-38.93L138.13-38.93L138.13-38.93Q137.62-38.76 137.19-38.17L137.19-38.17L137.19-38.17Q133.45-32.13 129.88-25.20L129.88-25.20L129.88-25.20Q126.31-18.28 124.53-14.28L124.53-14.28L122.83-10.37L122.83-10.37Q122.40-9.10 122.40-8.67L122.40-8.67L122.40-8.67Q122.40-7.91 123.00-7.91L123.00-7.91L123.00-7.91Q124.69-7.91 129.63-12.84ZM142.72-8.25L142.72-8.25L142.72-8.25Q132.77 1.10 129.97 1.10L129.97 1.10L129.97 1.10Q128.52 1.10 128.52-0.85L128.52-0.85L128.52-0.85Q128.52-2.81 130.05-6.55L130.05-6.55L130.05-6.55Q131.58-10.29 133.11-13.09L133.11-13.09L134.64-15.81L134.64-15.81Q141.10-27.12 144.42-32.05L144.42-32.05L144.42-32.05Q145.86-34.17 148.11-35.66L148.11-35.66L148.11-35.66Q150.37-37.15 152.32-37.15L152.32-37.15L152.32-37.15Q153-37.15 153-36.55L153-36.55L153-36.55Q153-36.13 152.41-34.94L152.41-34.94L152.41-34.94Q151.39-33.07 147.39-26.01L147.39-26.01L147.39-26.01Q143.40-18.96 142.63-17.51L142.63-17.51L142.63-17.51Q139.15-11.39 139.15-9.35L139.15-9.35L139.15-9.35Q139.15-8.59 139.66-8.59L139.66-8.59L139.66-8.59Q140.51-8.59 145.10-12.84L145.10-12.84L145.10-12.84Q148.67-16.41 154.53-23.12L154.53-23.12L154.53-23.12Q154.79-23.38 154.96-23.38L154.96-23.38L154.96-23.38Q155.13-23.38 155.13-23.04L155.13-23.04L155.13-23.04Q155.13-21.42 153.85-19.89L153.85-19.89L153.85-19.89Q147.56-12.92 142.72-8.25ZM154.02-41.99L154.02-41.99L154.02-41.99Q151.90-41.99 151.90-44.54L151.90-44.54L151.90-44.54Q151.90-46.92 153.68-49.34L153.68-49.34L153.68-49.34Q155.47-51.77 157.59-51.77L157.59-51.77L157.59-51.77Q160.14-51.77 160.14-48.88L160.14-48.88L160.14-48.88Q160.14-46.50 158.19-44.24L158.19-44.24L158.19-44.24Q156.23-41.99 154.02-41.99ZM166.52-9.69L166.52-9.69L166.52-9.69Q164.99-5.53 161.67-2.68L161.67-2.68L161.67-2.68Q158.36 0.17 155.51 1.19L155.51 1.19L155.51 1.19Q152.66 2.21 150.37 2.21L150.37 2.21L150.37 2.21Q144.16 2.21 144.16-2.64L144.16-2.64L144.16-2.64Q144.16-7.57 149.60-11.56L149.60-11.56L149.60-11.56Q152.15-13.43 155.13-14.03L155.13-14.03L155.13-14.03Q155.55-14.03 155.55-13.69L155.55-13.69L155.55-13.69Q155.55-13.52 155.38-13.35L155.38-13.35L155.38-13.35Q153.26-11.73 151.34-8.33L151.34-8.33L151.34-8.33Q149.43-4.93 149.43-2.38L149.43-2.38L149.43-2.38Q149.43 0.17 151.56 0.17L151.56 0.17L151.56 0.17Q153.26 0.17 154.91-1.23L154.91-1.23L154.91-1.23Q156.57-2.64 157.42-4.08L157.42-4.08L158.27-5.44L158.27-5.44Q159.97-8.16 161.12-14.11L161.12-14.11L161.12-14.11Q162.27-20.06 162.61-24.65L162.61-24.65L162.86-29.24L162.86-29.24Q162.86-29.92 162.61-29.92L162.61-29.92L162.27-29.75L153.85-19.89L153.85-19.89Q152.92-18.79 152.58-18.79L152.58-18.79L152.58-18.79Q152.15-18.79 152.15-19.38L152.15-19.38L152.15-19.38Q152.15-20.49 152.75-21.08L152.75-21.08L153.51-22.02L153.51-22.02Q163.20-32.90 164.56-35.19L164.56-35.19L164.56-35.19Q165.84-37.15 168.30-38.59L168.30-38.59L168.30-38.59Q170.68-39.95 173.91-39.95L173.91-39.95L173.91-39.95Q174.76-39.95 174.76-39.27L174.76-39.27L174.76-39.27Q174.76-38.85 174.08-38.51L174.08-38.51L174.08-38.51Q173.83-38.42 173.44-38.12L173.44-38.12L173.44-38.12Q173.06-37.83 172.08-36.72L172.08-36.72L172.08-36.72Q171.11-35.62 170.34-34.17L170.34-34.17L170.34-34.17Q169.58-32.73 168.98-30.13L168.98-30.13L168.98-30.13Q168.39-27.54 168.39-24.40L168.39-24.40L168.39-24.40Q168.39-14.62 166.52-9.69ZM184.45-12.84L184.45-12.84L184.45-12.84Q188.02-16.41 193.89-23.12L193.89-23.12L193.89-23.12Q194.14-23.38 194.31-23.38L194.31-23.38L194.31-23.38Q194.48-23.38 194.48-23.04L194.48-23.04L194.48-23.04Q194.48-21.42 193.21-19.89L193.21-19.89L193.21-19.89Q186.92-12.92 182.07-8.25L182.07-8.25L182.07-8.25Q171.87 1.62 168.56 1.62L168.56 1.62L168.56 1.62Q167.37 1.62 167.37 0.09L167.37 0.09L167.37 0.09Q167.37-1.70 168.73-5.27L168.73-5.27L168.73-5.27Q170.09-8.84 171.45-11.56L171.45-11.56L172.81-14.20L172.81-14.20Q174.76-17.68 179.27-26.10L179.27-26.10L179.27-26.10Q183.77-34.51 187.98-41.99L187.98-41.99L187.98-41.99Q192.19-49.47 195.93-55.51L195.93-55.51L189.21-55.51L189.21-55.51Q188.36-55.51 188.36-55.93L188.36-55.93L188.36-55.93Q188.36-56.36 189.04-56.78L189.04-56.78L189.04-56.78Q189.72-57.21 190.49-57.21L190.49-57.21L190.49-57.21Q192.36-57.21 197.03-57.29L197.03-57.29L197.03-57.29Q201.20-63.84 204.17-67.66L204.17-67.66L204.17-67.66Q206.81-70.98 207.83-70.98L207.83-70.98L207.83-70.98Q208.42-70.98 208.42-70.21L208.42-70.21L208.42-70.21Q208.42-68.43 205.19-62.56L205.19-62.56L202.30-57.29L211.06-57.29L211.06-57.29Q211.82-57.29 211.82-56.87L211.82-56.87L211.82-56.87Q211.82-55.51 209.36-55.51L209.36-55.51L201.37-55.51L201.37-55.51Q181.73-18.28 180.71-16.49L180.71-16.49L180.71-16.49Q177.14-9.95 177.14-7.99L177.14-7.99L177.14-7.99Q177.14-7.40 177.57-7.40L177.57-7.40L177.57-7.40Q178.76-7.40 184.45-12.84Z" fill="url(#editing-gradient-gradient)"></path></g></g><style>text {
  font-size: 64px;
  font-family: Arial Black;
  dominant-baseline: central;
  text-anchor: middle;
}</style></svg>