<svg width="399.2274658203125px" height="162.82124023437498px" xmlns="http://www.w3.org/2000/svg" viewBox="50.386267089843756 -6.4106201171874915 399.2274658203125 162.82124023437498" style="background: none;" preserveAspectRatio="xMidYMid"><defs><linearGradient id="editing-shiny-gradient" x1="0.30463443575536325" x2="0.6953655642446368" y1="0.9602524267262202" y2="0.03974757327377976" gradientUnits="objectBoundingBox"><stop offset="0.0" stop-color="#a00816"></stop><stop offset="0.5" stop-color="#e91629"></stop><stop offset="1.0" stop-color="#c8c8b4"></stop></linearGradient><linearGradient id="editing-shiny-gradient2" x1="0" x2="0" y1="0" y2="1"><stop offset="0.2" stop-color="#fff" stop-opacity="0.8"></stop><stop offset="0.8" stop-color="#fff" stop-opacity="0"></stop></linearGradient><filter id="editing-shiny2" x="-100%" y="-100%" width="300%" height="300%"><feMorphology operator="erode" radius="2"></feMorphology></filter><filter id="editing-shiny" x="-100%" y="-100%" width="300%" height="300%"><feFlood flood-color="#fff" result="flood"></feFlood><feConvolveMatrix in="SourceGraphic" result="conv" order="8,8" divisor="1" kernelMatrix="0 0 0 0 0 0 0 0 0 0 0 1 1 0 0 0 0 0 0 1 1 0 0 0 0 0 1 0 0 1 0 0 0 0 1 0 0 1 0 0 0 1 0 0 0 0 1 0 0 1 1 0 0 1 1 0 0 0 0 1 1 0 0 0 "></feConvolveMatrix><feOffset dx="0" dy="4" in="conv" result="offset"></feOffset><feComposite operator="in" in="flood" in2="offset" result="comp"></feComposite><feGaussianBlur in="offset" stdDeviation="3" result="shadow"></feGaussianBlur><feColorMatrix in="shadow" type="matrix" values="0.7 0 0 0 0  0 0.7 0 0 0  0 0 0.7 0 0  0 0 0 0.3 0" result="dark-shadow"></feColorMatrix><feOffset dx="0" dy="4" in="dark-shadow" result="offset-shadow"></feOffset><feOffset dx="0" dy="2" in="conv" result="offset-2"></feOffset><feComposite operator="out" in="offset" in2="offset-2" result="edge-diff"></feComposite><feGaussianBlur in="edge-diff" stdDeviation="1" result="edge-blur"></feGaussianBlur><feColorMatrix in="edge-blur" result="edge-shadow" type="matrix" values="0 0 0 0 0  0 0 0 0 0  0 0 0 0 0  0 0 0 0.5 0"></feColorMatrix><feComposite operator="in" in="edge-shadow" in2="offset" result="edge-shadow-in"></feComposite><feOffset dx="0" dy="1" in="edge-shadow-in" result="edge-shadow-final"></feOffset><feMerge result="out"><feMergeNode in="offset-shadow"></feMergeNode><feMergeNode in="comp"></feMergeNode><feMergeNode in="edge-shadow-final"></feMergeNode><feMergeNode in="SourceGraphic"></feMergeNode></feMerge></filter></defs><g filter="url(#editing-shiny)"><g transform="translate(113.57437181472778, 109.98906326293945)"><path d="M100.46-37.55L100.46-37.55L100.46-37.55Q100.46-33.26 96.18-28.14L96.18-28.14L96.18-28.14Q91.90-23.02 83.20-19.82L83.20-19.82L83.20-19.82Q74.51-16.63 66.32-16.63L66.32-16.63L66.32-16.63Q58.13-16.63 53.34-18.73L53.34-18.73L53.34-18.73Q42.76-3.19 39.56 0L39.56 0L39.56 0Q30.49 9.07 17.89 9.07L17.89 9.07L17.89 9.07Q10.75 9.07 7.18 5.75L7.18 5.75L7.18 5.75Q3.61 2.44 3.61-2.86L3.61-2.86L3.61-2.86Q3.61-10.16 9.49-16.63L9.49-16.63L9.49-16.63Q15.96-23.77 25.79-23.77L25.79-23.77L25.79-23.77Q29.82-23.77 32.59-21.92L32.59-21.92L32.59-21.92Q35.36-20.08 35.36-16.30L35.36-16.30L35.36-16.30Q35.36-13.78 32.51-10.25L32.51-10.25L32.51-10.25Q29.65-6.72 28.98-6.72L28.98-6.72L28.98-6.72Q28.81-6.72 28.81-7.06L28.81-7.06L28.81-7.06Q28.81-7.39 29.06-7.73L29.06-7.73L29.06-7.73Q31.75-11.68 31.75-14.99L31.75-14.99L31.75-14.99Q31.75-18.31 29.69-20.12L29.69-20.12L29.69-20.12Q27.64-21.92 24.61-21.92L24.61-21.92L24.61-21.92Q17.56-21.92 12.14-15.50L12.14-15.50L12.14-15.50Q6.72-9.07 6.72-2.52L6.72-2.52L6.72-2.52Q6.72 1.68 9.37 4.28L9.37 4.28L9.37 4.28Q12.01 6.89 17.56 6.89L17.56 6.89L17.56 6.89Q27.89 6.89 35.28-0.08L35.28-0.08L35.28-0.08Q39.56-4.12 43.93-11.84L43.93-11.84L51.24-25.03L51.24-25.03Q56.62-33.68 63.76-50.74L63.76-50.74L63.76-50.74Q63.00-50.74 62.24-50.74L62.24-50.74L62.24-50.74Q50.90-50.74 39.48-48.26L39.48-48.26L39.48-48.26Q28.06-45.78 22.18-41.16L22.18-41.16L22.18-41.16Q19.66-39.23 19.66-37.38L19.66-37.38L19.66-37.38Q19.66-35.53 21.63-34.40L21.63-34.40L21.63-34.40Q23.60-33.26 26.29-33.26L26.29-33.26L26.29-33.26Q28.98-33.26 32.97-34.31L32.97-34.31L32.97-34.31Q36.96-35.36 38.98-37.13L38.98-37.13L38.98-37.13Q39.82-37.80 40.15-37.80L40.15-37.80L40.15-37.80Q40.82-37.80 40.40-37.13L40.40-37.13L40.40-37.13Q37.38-33.60 31.25-31.84L31.25-31.84L31.25-31.84Q27.47-30.74 23.77-30.74L23.77-30.74L23.77-30.74Q20.08-30.74 17.72-32.38L17.72-32.38L17.72-32.38Q15.37-34.02 15.37-36.83L15.37-36.83L15.37-36.83Q15.37-39.65 18.40-42.50L18.40-42.50L18.40-42.50Q24.11-48.05 38.81-50.74L38.81-50.74L38.81-50.74Q49.22-52.58 62.75-52.58L62.75-52.58L62.75-52.58Q63.84-52.58 65.02-52.58L65.02-52.58L65.02-52.58Q66.86-54.18 68.38-54.18L68.38-54.18L68.38-54.18Q69.89-54.18 69.89-53.00L69.89-53.00L69.89-53.00Q69.89-52.75 69.80-52.42L69.80-52.42L69.80-52.42Q82.82-51.49 90.89-48.05L90.89-48.05L90.89-48.05Q100.46-44.02 100.46-37.55ZM96.52-38.39L96.52-38.39L96.52-38.39Q96.52-43.68 87.95-47.04L87.95-47.04L87.95-47.04Q80.47-49.98 69.22-50.57L69.22-50.57L66.53-42.17L66.53-42.17Q63.34-34.27 54.26-20.16L54.26-20.16L54.26-20.16Q55.10-19.74 57.12-19.24L57.12-19.24L57.12-19.24Q60.48-18.65 62.33-18.65L62.33-18.65L62.33-18.65Q68.71-18.65 77.03-21.29L77.03-21.29L77.03-21.29Q85.34-23.94 90.93-29.02L90.93-29.02L90.93-29.02Q96.52-34.10 96.52-38.39ZM92.06-4.20L92.06-4.20L92.06-4.20Q92.06-1.68 94.84-1.68L94.84-1.68L94.84-1.68Q97.61-1.68 101.98-4.62L101.98-4.62L101.98-4.62Q106.34-7.56 110.46-12.60L110.46-12.60L110.46-12.60Q111.47-13.94 112.06-13.94L112.06-13.94L112.06-13.94Q112.64-13.94 112.64-13.44L112.64-13.44L112.64-13.44Q112.64-12.94 109.20-9.07L109.20-9.07L109.20-9.07Q100.80 0.17 95.17 0.17L95.17 0.17L95.17 0.17Q92.40 0.17 90.47-1.13L90.47-1.13L90.47-1.13Q88.54-2.44 88.54-5.17L88.54-5.17L88.54-5.17Q88.54-7.90 89.96-11.51L89.96-11.51L89.96-11.51Q92.40-17.22 97.78-25.87L97.78-25.87L97.78-25.87Q107.60-41.83 111.72-41.83L111.72-41.83L111.72-41.83Q112.56-41.83 113.44-41.20L113.44-41.20L113.44-41.20Q114.32-40.57 114.41-39.82L114.41-39.82L114.41-39.82Q112.48-37.21 106.97-29.82L106.97-29.82L106.97-29.82Q101.47-22.43 99.37-19.19L99.37-19.19L99.37-19.19Q97.27-15.96 96.22-14.36L96.22-14.36L96.22-14.36Q95.17-12.77 94.67-11.89L94.67-11.89L94.67-11.89Q94.16-11.00 93.49-9.58L93.49-9.58L93.49-9.58Q92.06-6.72 92.06-4.20ZM137.09-25.12L137.09-25.12L138.26-25.37L138.26-25.37Q139.19-25.37 140.03-24.61L140.03-24.61L140.03-24.61Q140.87-23.86 140.87-23.44L140.87-23.44L140.87-23.44Q140.87-23.02 135.66-15.33L135.66-15.33L135.66-15.33Q130.45-7.64 130.45-4.62L130.45-4.62L130.45-4.62Q130.45-4.37 130.54-4.12L130.54-4.12L130.54-4.12Q130.96-2.18 132.38-2.18L132.38-2.18L132.38-2.18Q136.75-2.18 148.34-16.63L148.34-16.63L148.34-16.63Q148.60-16.97 148.93-16.97L148.93-16.97L148.93-16.97Q149.27-16.97 149.27-16.34L149.27-16.34L149.27-16.34Q149.27-15.71 148.51-14.70L148.51-14.70L148.51-14.70Q137.76-0.34 132.13-0.34L132.13-0.34L132.13-0.34Q131.38-0.34 130.70-0.59L130.70-0.59L130.70-0.59Q127.01-2.02 127.01-6.13L127.01-6.13L127.01-6.13Q127.01-7.56 127.34-8.99L127.34-8.99L122.14-3.95L122.14-3.95Q117.18 0.42 114.95 0.42L114.95 0.42L114.95 0.42Q112.73 0.42 110.71-1.01L110.71-1.01L110.71-1.01Q108.44-2.69 108.44-5.46L108.44-5.46L108.44-5.46Q108.44-11.59 117.01-20.12L117.01-20.12L117.01-20.12Q125.58-28.64 132.72-28.64L132.72-28.64L132.72-28.64Q135.49-28.64 136.42-26.71L136.42-26.71L136.42-26.71Q136.67-26.04 136.84-25.58L136.84-25.58L136.84-25.58Q137.00-25.12 137.09-25.12ZM111.97-4.45L111.97-4.45L111.97-4.45Q111.97-1.43 114.07-1.43L114.07-1.43L114.07-1.43Q118.94-1.43 127.34-12.10L127.34-12.10L136.25-24.36L136.25-24.36Q135.58-25.54 134.06-25.54L134.06-25.54L134.06-25.54Q128.94-25.54 120.46-17.60L120.46-17.60L120.46-17.60Q111.97-9.66 111.97-4.45ZM139.10 9.74L139.10 9.74L139.10 9.74Q143.14 14.78 146.08 14.78L146.08 14.78L146.08 14.78Q150.86 14.78 156.41 7.14L156.41 7.14L156.41 7.14Q160.44 1.51 164.30-7.06L164.30-7.06L167.50-14.78L155.15-5.12L155.15-5.12Q149.44-0.67 145.99-0.67L145.99-0.67L145.99-0.67Q144.14-0.67 143.05-1.93L143.05-1.93L143.05-1.93Q141.96-3.19 141.96-4.79L141.96-4.79L141.96-4.79Q141.96-8.40 148.18-16.67L148.18-16.67L148.18-16.67Q154.39-24.95 157.25-24.95L157.25-24.95L157.25-24.95Q160.10-24.95 160.10-23.02L160.10-23.02L160.10-23.02Q160.10-22.26 152.67-14.32L152.67-14.32L152.67-14.32Q145.24-6.38 145.24-3.61L145.24-3.61L145.24-3.61Q145.24-2.52 146.66-2.52L146.66-2.52L146.66-2.52Q149.35-2.52 157.46-8.82L157.46-8.82L157.46-8.82Q165.56-15.12 169.68-19.24L169.68-19.24L169.68-19.24Q170.60-20.33 172.28-22.51L172.28-22.51L172.28-22.51Q173.88-24.36 175.81-24.36L175.81-24.36L175.81-24.36Q177.74-24.36 177.74-22.51L177.74-22.51L177.74-22.51Q177.74-22.18 173.96-16.55L173.96-16.55L173.96-16.55Q170.18-10.92 170.02-10.58L170.02-10.58L170.02-10.58Q167.41-5.54 162.04 4.12L162.04 4.12L162.04 4.12Q153.89 17.22 145.74 17.22L145.74 17.22L145.74 17.22Q143.05 17.22 141.04 14.91L141.04 14.91L141.04 14.91Q139.02 12.60 139.10 9.74ZM178.16-4.20L178.16-4.20L178.16-4.20Q178.16-1.68 180.94-1.68L180.94-1.68L180.94-1.68Q183.71-1.68 188.08-4.62L188.08-4.62L188.08-4.62Q192.44-7.56 196.56-12.60L196.56-12.60L196.56-12.60Q197.57-13.94 198.16-13.94L198.16-13.94L198.16-13.94Q198.74-13.94 198.74-13.44L198.74-13.44L198.74-13.44Q198.74-12.94 195.30-9.07L195.30-9.07L195.30-9.07Q186.90 0.17 181.27 0.17L181.27 0.17L181.27 0.17Q178.50 0.17 176.57-1.13L176.57-1.13L176.57-1.13Q174.64-2.44 174.64-5.17L174.64-5.17L174.64-5.17Q174.64-7.90 176.06-11.51L176.06-11.51L176.06-11.51Q178.50-17.22 183.88-25.87L183.88-25.87L183.88-25.87Q193.70-41.83 197.82-41.83L197.82-41.83L197.82-41.83Q198.66-41.83 199.54-41.20L199.54-41.20L199.54-41.20Q200.42-40.57 200.51-39.82L200.51-39.82L200.51-39.82Q198.58-37.21 193.07-29.82L193.07-29.82L193.07-29.82Q187.57-22.43 185.47-19.19L185.47-19.19L185.47-19.19Q183.37-15.96 182.32-14.36L182.32-14.36L182.32-14.36Q181.27-12.77 180.77-11.89L180.77-11.89L180.77-11.89Q180.26-11.00 179.59-9.58L179.59-9.58L179.59-9.58Q178.16-6.72 178.16-4.20ZM213.53-34.27L213.53-34.27Q214.79-34.27 215.92-33.47L215.92-33.47L215.92-33.47Q217.06-32.68 217.06-31.58L217.06-31.58L217.06-31.58Q217.06-30.49 216.01-29.69L216.01-29.69L216.01-29.69Q214.96-28.90 213.70-28.90L213.70-28.90L213.70-28.90Q212.44-28.90 211.39-29.82L211.39-29.82L211.39-29.82Q210.34-30.74 210.34-31.92L210.34-31.92L210.34-31.92Q210.34-34.27 213.53-34.27L213.53-34.27ZM198.32 0.92L198.32 0.92L198.32 0.92Q194.04 0.92 194.04-4.62L194.04-4.62L194.04-4.62Q194.04-9.16 199.00-17.18L199.00-17.18L199.00-17.18Q203.95-25.20 206.98-25.28L206.98-25.28L206.98-25.28Q207.82-25.28 208.87-24.61L208.87-24.61L208.87-24.61Q209.92-23.94 209.92-23.27L209.92-23.27L209.92-23.27Q209.50-22.68 208.91-21.97L208.91-21.97L208.91-21.97Q208.32-21.25 207.65-20.41L207.65-20.41L207.65-20.41Q206.98-19.57 205.80-18.02L205.80-18.02L205.80-18.02Q204.62-16.46 203.53-15.04L203.53-15.04L203.53-15.04Q197.23-6.89 197.23-3.82L197.23-3.82L197.23-3.82Q197.23-0.76 199.33-0.76L199.33-0.76L199.33-0.76Q201.10-0.76 204.12-2.69L204.12-2.69L204.12-2.69Q211.18-7.06 215.29-12.26L215.29-12.26L215.29-12.26Q216.80-14.20 217.35-14.20L217.35-14.20L217.35-14.20Q217.90-14.20 217.90-13.52L217.90-13.52L217.90-13.52Q217.90-12.85 215.96-10.84L215.96-10.84L215.96-10.84Q214.03-8.82 212.90-7.64L212.90-7.64L212.90-7.64Q211.76-6.47 211.34-6.09L211.34-6.09L211.34-6.09Q210.92-5.71 209.79-4.66L209.79-4.66L209.79-4.66Q208.66-3.61 208.07-3.19L208.07-3.19L208.07-3.19Q207.48-2.77 206.39-1.93L206.39-1.93L206.39-1.93Q205.30-1.09 204.46-0.71L204.46-0.71L204.46-0.71Q203.62-0.34 202.52 0.17L202.52 0.17L202.52 0.17Q200.76 0.92 198.32 0.92ZM232.43-3.02L229.74-1.26L229.74-1.26Q227.30 0.17 223.73 0.17L223.73 0.17L223.73 0.17Q220.16 0.17 218.27-2.18L218.27-2.18L218.27-2.18Q216.38-4.54 215.04-9.66L215.04-9.66L215.04-9.66Q213.53-8.15 212.94-8.15L212.94-8.15L212.94-8.15Q212.52-8.15 212.52-8.74L212.52-8.74L212.52-8.74Q212.52-9.32 212.94-9.74L212.94-9.74L212.94-9.74Q215.71-13.19 222.35-19.66L222.35-19.66L232.93-29.57L232.93-29.57Q237.47-33.85 238.31-33.85L238.31-33.85L238.31-33.85Q241.00-33.85 241.00-31.84L241.00-31.84L241.00-31.84Q241.00-30.83 240.20-29.86L240.20-29.86L240.20-29.86Q239.40-28.90 239.02-28.35L239.02-28.35L239.02-28.35Q238.64-27.80 238.22-27.30L238.22-27.30L238.22-27.30Q236.71-24.70 235.16-16.55L235.16-16.55L235.16-16.55Q233.60-8.40 232.76-5.21L232.76-5.21L232.76-5.21Q239.74-5.29 247.13-14.28L247.13-14.28L247.13-14.28Q247.97-15.12 248.39-15.12L248.39-15.12L248.39-15.12Q248.81-15.12 248.81-14.57L248.81-14.57L248.81-14.57Q248.81-14.03 248.05-13.10L248.05-13.10L248.05-13.10Q243.18-7.39 238.98-5.12L238.98-5.12L238.98-5.12Q236.46-3.86 232.43-3.02L232.43-3.02ZM218.40-10.58L218.40-10.58L218.40-10.58Q218.40-7.73 220.29-5.92L220.29-5.92L220.29-5.92Q222.18-4.12 224.53-4.12L224.53-4.12L224.53-4.12Q226.88-4.12 228.14-5.04L228.14-5.04L228.14-5.04Q229.82-5.96 231.46-12.77L231.46-12.77L231.46-12.77Q233.10-19.57 233.44-24.78L233.44-24.78L233.77-27.64L233.77-27.64Q229.15-24.19 223.90-18.73L223.90-18.73L223.90-18.73Q218.65-13.27 218.48-11.51L218.48-11.51L218.48-11.51Q218.40-11.00 218.40-10.58ZM266.36-27.05L266.36-27.05L278.46-27.22L278.46-27.22Q278.71-27.05 278.71-26.96L278.71-26.96L278.71-26.96Q278.71-26.21 268.25-24.86L268.25-24.86L268.25-24.86Q257.80-23.52 256.96-23.27L256.96-23.27L256.96-23.27Q255.36-21.84 251.08-14.74L251.08-14.74L251.08-14.74Q246.79-7.64 246.79-4.37L246.79-4.37L246.79-4.37Q246.79-1.26 251.08-1.26L251.08-1.26L251.08-1.26Q253.09-1.26 256.37-2.52L256.37-2.52L256.37-2.52Q259.64-3.78 261.41-4.87L261.41-4.87L261.41-4.87Q266.11-7.81 271.49-13.52L271.49-13.52L271.49-13.52Q272.66-14.70 273.08-14.70L273.08-14.70L273.08-14.70Q273.34-14.70 273.34-14.20L273.34-14.20L273.34-14.20Q273.34-13.69 272.08-12.18L272.08-12.18L272.08-12.18Q267.71-6.80 262.25-3.53L262.25-3.53L262.25-3.53Q255.70 0.50 249.73 0.50L249.73 0.50L249.73 0.50Q247.13 0.50 245.49-0.63L245.49-0.63L245.49-0.63Q243.85-1.76 243.85-5.21L243.85-5.21L243.85-5.21Q243.85-8.65 246.88-14.66L246.88-14.66L246.88-14.66Q249.90-20.66 251.50-23.60L251.50-23.60L251.50-23.60Q250.32-23.35 249.48-23.35L249.48-23.35L249.48-23.35Q247.04-23.35 247.04-25.28L247.04-25.28L247.04-25.28Q247.04-26.71 249.06-27.30L249.06-27.30L249.06-27.30Q249.31-27.30 249.82-27.38L249.82-27.38L254.69-27.38L254.69-27.38Q256.20-29.32 258.13-31.84L258.13-31.84L258.13-31.84Q260.48-34.86 261.32-34.86L261.32-34.86L261.32-34.86Q262.16-34.86 263.42-34.19L263.42-34.19L263.42-34.19Q264.68-33.52 264.68-32.59L264.68-32.59L264.68-32.59Q264.68-31.67 260.65-27.13L260.65-27.13L260.65-27.13Q262.84-27.05 266.36-27.05Z" fill="url(#editing-shiny-gradient)"></path></g></g><g filter="url(#editing-shiny2)"><g transform="translate(113.86343431472778, 110.70000076293945)"><path d="M100.46-37.55L100.46-37.55L100.46-37.55Q100.46-33.26 96.18-28.14L96.18-28.14L96.18-28.14Q91.90-23.02 83.20-19.82L83.20-19.82L83.20-19.82Q74.51-16.63 66.32-16.63L66.32-16.63L66.32-16.63Q58.13-16.63 53.34-18.73L53.34-18.73L53.34-18.73Q42.76-3.19 39.56 0L39.56 0L39.56 0Q30.49 9.07 17.89 9.07L17.89 9.07L17.89 9.07Q10.75 9.07 7.18 5.75L7.18 5.75L7.18 5.75Q3.61 2.44 3.61-2.86L3.61-2.86L3.61-2.86Q3.61-10.16 9.49-16.63L9.49-16.63L9.49-16.63Q15.96-23.77 25.79-23.77L25.79-23.77L25.79-23.77Q29.82-23.77 32.59-21.92L32.59-21.92L32.59-21.92Q35.36-20.08 35.36-16.30L35.36-16.30L35.36-16.30Q35.36-13.78 32.51-10.25L32.51-10.25L32.51-10.25Q29.65-6.72 28.98-6.72L28.98-6.72L28.98-6.72Q28.81-6.72 28.81-7.06L28.81-7.06L28.81-7.06Q28.81-7.39 29.06-7.73L29.06-7.73L29.06-7.73Q31.75-11.68 31.75-14.99L31.75-14.99L31.75-14.99Q31.75-18.31 29.69-20.12L29.69-20.12L29.69-20.12Q27.64-21.92 24.61-21.92L24.61-21.92L24.61-21.92Q17.56-21.92 12.14-15.50L12.14-15.50L12.14-15.50Q6.72-9.07 6.72-2.52L6.72-2.52L6.72-2.52Q6.72 1.68 9.37 4.28L9.37 4.28L9.37 4.28Q12.01 6.89 17.56 6.89L17.56 6.89L17.56 6.89Q27.89 6.89 35.28-0.08L35.28-0.08L35.28-0.08Q39.56-4.12 43.93-11.84L43.93-11.84L51.24-25.03L51.24-25.03Q56.62-33.68 63.76-50.74L63.76-50.74L63.76-50.74Q63.00-50.74 62.24-50.74L62.24-50.74L62.24-50.74Q50.90-50.74 39.48-48.26L39.48-48.26L39.48-48.26Q28.06-45.78 22.18-41.16L22.18-41.16L22.18-41.16Q19.66-39.23 19.66-37.38L19.66-37.38L19.66-37.38Q19.66-35.53 21.63-34.40L21.63-34.40L21.63-34.40Q23.60-33.26 26.29-33.26L26.29-33.26L26.29-33.26Q28.98-33.26 32.97-34.31L32.97-34.31L32.97-34.31Q36.96-35.36 38.98-37.13L38.98-37.13L38.98-37.13Q39.82-37.80 40.15-37.80L40.15-37.80L40.15-37.80Q40.82-37.80 40.40-37.13L40.40-37.13L40.40-37.13Q37.38-33.60 31.25-31.84L31.25-31.84L31.25-31.84Q27.47-30.74 23.77-30.74L23.77-30.74L23.77-30.74Q20.08-30.74 17.72-32.38L17.72-32.38L17.72-32.38Q15.37-34.02 15.37-36.83L15.37-36.83L15.37-36.83Q15.37-39.65 18.40-42.50L18.40-42.50L18.40-42.50Q24.11-48.05 38.81-50.74L38.81-50.74L38.81-50.74Q49.22-52.58 62.75-52.58L62.75-52.58L62.75-52.58Q63.84-52.58 65.02-52.58L65.02-52.58L65.02-52.58Q66.86-54.18 68.38-54.18L68.38-54.18L68.38-54.18Q69.89-54.18 69.89-53.00L69.89-53.00L69.89-53.00Q69.89-52.75 69.80-52.42L69.80-52.42L69.80-52.42Q82.82-51.49 90.89-48.05L90.89-48.05L90.89-48.05Q100.46-44.02 100.46-37.55ZM96.52-38.39L96.52-38.39L96.52-38.39Q96.52-43.68 87.95-47.04L87.95-47.04L87.95-47.04Q80.47-49.98 69.22-50.57L69.22-50.57L66.53-42.17L66.53-42.17Q63.34-34.27 54.26-20.16L54.26-20.16L54.26-20.16Q55.10-19.74 57.12-19.24L57.12-19.24L57.12-19.24Q60.48-18.65 62.33-18.65L62.33-18.65L62.33-18.65Q68.71-18.65 77.03-21.29L77.03-21.29L77.03-21.29Q85.34-23.94 90.93-29.02L90.93-29.02L90.93-29.02Q96.52-34.10 96.52-38.39ZM92.06-4.20L92.06-4.20L92.06-4.20Q92.06-1.68 94.84-1.68L94.84-1.68L94.84-1.68Q97.61-1.68 101.98-4.62L101.98-4.62L101.98-4.62Q106.34-7.56 110.46-12.60L110.46-12.60L110.46-12.60Q111.47-13.94 112.06-13.94L112.06-13.94L112.06-13.94Q112.64-13.94 112.64-13.44L112.64-13.44L112.64-13.44Q112.64-12.94 109.20-9.07L109.20-9.07L109.20-9.07Q100.80 0.17 95.17 0.17L95.17 0.17L95.17 0.17Q92.40 0.17 90.47-1.13L90.47-1.13L90.47-1.13Q88.54-2.44 88.54-5.17L88.54-5.17L88.54-5.17Q88.54-7.90 89.96-11.51L89.96-11.51L89.96-11.51Q92.40-17.22 97.78-25.87L97.78-25.87L97.78-25.87Q107.60-41.83 111.72-41.83L111.72-41.83L111.72-41.83Q112.56-41.83 113.44-41.20L113.44-41.20L113.44-41.20Q114.32-40.57 114.41-39.82L114.41-39.82L114.41-39.82Q112.48-37.21 106.97-29.82L106.97-29.82L106.97-29.82Q101.47-22.43 99.37-19.19L99.37-19.19L99.37-19.19Q97.27-15.96 96.22-14.36L96.22-14.36L96.22-14.36Q95.17-12.77 94.67-11.89L94.67-11.89L94.67-11.89Q94.16-11.00 93.49-9.58L93.49-9.58L93.49-9.58Q92.06-6.72 92.06-4.20ZM137.09-25.12L137.09-25.12L138.26-25.37L138.26-25.37Q139.19-25.37 140.03-24.61L140.03-24.61L140.03-24.61Q140.87-23.86 140.87-23.44L140.87-23.44L140.87-23.44Q140.87-23.02 135.66-15.33L135.66-15.33L135.66-15.33Q130.45-7.64 130.45-4.62L130.45-4.62L130.45-4.62Q130.45-4.37 130.54-4.12L130.54-4.12L130.54-4.12Q130.96-2.18 132.38-2.18L132.38-2.18L132.38-2.18Q136.75-2.18 148.34-16.63L148.34-16.63L148.34-16.63Q148.60-16.97 148.93-16.97L148.93-16.97L148.93-16.97Q149.27-16.97 149.27-16.34L149.27-16.34L149.27-16.34Q149.27-15.71 148.51-14.70L148.51-14.70L148.51-14.70Q137.76-0.34 132.13-0.34L132.13-0.34L132.13-0.34Q131.38-0.34 130.70-0.59L130.70-0.59L130.70-0.59Q127.01-2.02 127.01-6.13L127.01-6.13L127.01-6.13Q127.01-7.56 127.34-8.99L127.34-8.99L122.14-3.95L122.14-3.95Q117.18 0.42 114.95 0.42L114.95 0.42L114.95 0.42Q112.73 0.42 110.71-1.01L110.71-1.01L110.71-1.01Q108.44-2.69 108.44-5.46L108.44-5.46L108.44-5.46Q108.44-11.59 117.01-20.12L117.01-20.12L117.01-20.12Q125.58-28.64 132.72-28.64L132.72-28.64L132.72-28.64Q135.49-28.64 136.42-26.71L136.42-26.71L136.42-26.71Q136.67-26.04 136.84-25.58L136.84-25.58L136.84-25.58Q137.00-25.12 137.09-25.12ZM111.97-4.45L111.97-4.45L111.97-4.45Q111.97-1.43 114.07-1.43L114.07-1.43L114.07-1.43Q118.94-1.43 127.34-12.10L127.34-12.10L136.25-24.36L136.25-24.36Q135.58-25.54 134.06-25.54L134.06-25.54L134.06-25.54Q128.94-25.54 120.46-17.60L120.46-17.60L120.46-17.60Q111.97-9.66 111.97-4.45ZM139.10 9.74L139.10 9.74L139.10 9.74Q143.14 14.78 146.08 14.78L146.08 14.78L146.08 14.78Q150.86 14.78 156.41 7.14L156.41 7.14L156.41 7.14Q160.44 1.51 164.30-7.06L164.30-7.06L167.50-14.78L155.15-5.12L155.15-5.12Q149.44-0.67 145.99-0.67L145.99-0.67L145.99-0.67Q144.14-0.67 143.05-1.93L143.05-1.93L143.05-1.93Q141.96-3.19 141.96-4.79L141.96-4.79L141.96-4.79Q141.96-8.40 148.18-16.67L148.18-16.67L148.18-16.67Q154.39-24.95 157.25-24.95L157.25-24.95L157.25-24.95Q160.10-24.95 160.10-23.02L160.10-23.02L160.10-23.02Q160.10-22.26 152.67-14.32L152.67-14.32L152.67-14.32Q145.24-6.38 145.24-3.61L145.24-3.61L145.24-3.61Q145.24-2.52 146.66-2.52L146.66-2.52L146.66-2.52Q149.35-2.52 157.46-8.82L157.46-8.82L157.46-8.82Q165.56-15.12 169.68-19.24L169.68-19.24L169.68-19.24Q170.60-20.33 172.28-22.51L172.28-22.51L172.28-22.51Q173.88-24.36 175.81-24.36L175.81-24.36L175.81-24.36Q177.74-24.36 177.74-22.51L177.74-22.51L177.74-22.51Q177.74-22.18 173.96-16.55L173.96-16.55L173.96-16.55Q170.18-10.92 170.02-10.58L170.02-10.58L170.02-10.58Q167.41-5.54 162.04 4.12L162.04 4.12L162.04 4.12Q153.89 17.22 145.74 17.22L145.74 17.22L145.74 17.22Q143.05 17.22 141.04 14.91L141.04 14.91L141.04 14.91Q139.02 12.60 139.10 9.74ZM178.16-4.20L178.16-4.20L178.16-4.20Q178.16-1.68 180.94-1.68L180.94-1.68L180.94-1.68Q183.71-1.68 188.08-4.62L188.08-4.62L188.08-4.62Q192.44-7.56 196.56-12.60L196.56-12.60L196.56-12.60Q197.57-13.94 198.16-13.94L198.16-13.94L198.16-13.94Q198.74-13.94 198.74-13.44L198.74-13.44L198.74-13.44Q198.74-12.94 195.30-9.07L195.30-9.07L195.30-9.07Q186.90 0.17 181.27 0.17L181.27 0.17L181.27 0.17Q178.50 0.17 176.57-1.13L176.57-1.13L176.57-1.13Q174.64-2.44 174.64-5.17L174.64-5.17L174.64-5.17Q174.64-7.90 176.06-11.51L176.06-11.51L176.06-11.51Q178.50-17.22 183.88-25.87L183.88-25.87L183.88-25.87Q193.70-41.83 197.82-41.83L197.82-41.83L197.82-41.83Q198.66-41.83 199.54-41.20L199.54-41.20L199.54-41.20Q200.42-40.57 200.51-39.82L200.51-39.82L200.51-39.82Q198.58-37.21 193.07-29.82L193.07-29.82L193.07-29.82Q187.57-22.43 185.47-19.19L185.47-19.19L185.47-19.19Q183.37-15.96 182.32-14.36L182.32-14.36L182.32-14.36Q181.27-12.77 180.77-11.89L180.77-11.89L180.77-11.89Q180.26-11.00 179.59-9.58L179.59-9.58L179.59-9.58Q178.16-6.72 178.16-4.20ZM213.53-34.27L213.53-34.27Q214.79-34.27 215.92-33.47L215.92-33.47L215.92-33.47Q217.06-32.68 217.06-31.58L217.06-31.58L217.06-31.58Q217.06-30.49 216.01-29.69L216.01-29.69L216.01-29.69Q214.96-28.90 213.70-28.90L213.70-28.90L213.70-28.90Q212.44-28.90 211.39-29.82L211.39-29.82L211.39-29.82Q210.34-30.74 210.34-31.92L210.34-31.92L210.34-31.92Q210.34-34.27 213.53-34.27L213.53-34.27ZM198.32 0.92L198.32 0.92L198.32 0.92Q194.04 0.92 194.04-4.62L194.04-4.62L194.04-4.62Q194.04-9.16 199.00-17.18L199.00-17.18L199.00-17.18Q203.95-25.20 206.98-25.28L206.98-25.28L206.98-25.28Q207.82-25.28 208.87-24.61L208.87-24.61L208.87-24.61Q209.92-23.94 209.92-23.27L209.92-23.27L209.92-23.27Q209.50-22.68 208.91-21.97L208.91-21.97L208.91-21.97Q208.32-21.25 207.65-20.41L207.65-20.41L207.65-20.41Q206.98-19.57 205.80-18.02L205.80-18.02L205.80-18.02Q204.62-16.46 203.53-15.04L203.53-15.04L203.53-15.04Q197.23-6.89 197.23-3.82L197.23-3.82L197.23-3.82Q197.23-0.76 199.33-0.76L199.33-0.76L199.33-0.76Q201.10-0.76 204.12-2.69L204.12-2.69L204.12-2.69Q211.18-7.06 215.29-12.26L215.29-12.26L215.29-12.26Q216.80-14.20 217.35-14.20L217.35-14.20L217.35-14.20Q217.90-14.20 217.90-13.52L217.90-13.52L217.90-13.52Q217.90-12.85 215.96-10.84L215.96-10.84L215.96-10.84Q214.03-8.82 212.90-7.64L212.90-7.64L212.90-7.64Q211.76-6.47 211.34-6.09L211.34-6.09L211.34-6.09Q210.92-5.71 209.79-4.66L209.79-4.66L209.79-4.66Q208.66-3.61 208.07-3.19L208.07-3.19L208.07-3.19Q207.48-2.77 206.39-1.93L206.39-1.93L206.39-1.93Q205.30-1.09 204.46-0.71L204.46-0.71L204.46-0.71Q203.62-0.34 202.52 0.17L202.52 0.17L202.52 0.17Q200.76 0.92 198.32 0.92ZM232.43-3.02L229.74-1.26L229.74-1.26Q227.30 0.17 223.73 0.17L223.73 0.17L223.73 0.17Q220.16 0.17 218.27-2.18L218.27-2.18L218.27-2.18Q216.38-4.54 215.04-9.66L215.04-9.66L215.04-9.66Q213.53-8.15 212.94-8.15L212.94-8.15L212.94-8.15Q212.52-8.15 212.52-8.74L212.52-8.74L212.52-8.74Q212.52-9.32 212.94-9.74L212.94-9.74L212.94-9.74Q215.71-13.19 222.35-19.66L222.35-19.66L232.93-29.57L232.93-29.57Q237.47-33.85 238.31-33.85L238.31-33.85L238.31-33.85Q241.00-33.85 241.00-31.84L241.00-31.84L241.00-31.84Q241.00-30.83 240.20-29.86L240.20-29.86L240.20-29.86Q239.40-28.90 239.02-28.35L239.02-28.35L239.02-28.35Q238.64-27.80 238.22-27.30L238.22-27.30L238.22-27.30Q236.71-24.70 235.16-16.55L235.16-16.55L235.16-16.55Q233.60-8.40 232.76-5.21L232.76-5.21L232.76-5.21Q239.74-5.29 247.13-14.28L247.13-14.28L247.13-14.28Q247.97-15.12 248.39-15.12L248.39-15.12L248.39-15.12Q248.81-15.12 248.81-14.57L248.81-14.57L248.81-14.57Q248.81-14.03 248.05-13.10L248.05-13.10L248.05-13.10Q243.18-7.39 238.98-5.12L238.98-5.12L238.98-5.12Q236.46-3.86 232.43-3.02L232.43-3.02ZM218.40-10.58L218.40-10.58L218.40-10.58Q218.40-7.73 220.29-5.92L220.29-5.92L220.29-5.92Q222.18-4.12 224.53-4.12L224.53-4.12L224.53-4.12Q226.88-4.12 228.14-5.04L228.14-5.04L228.14-5.04Q229.82-5.96 231.46-12.77L231.46-12.77L231.46-12.77Q233.10-19.57 233.44-24.78L233.44-24.78L233.77-27.64L233.77-27.64Q229.15-24.19 223.90-18.73L223.90-18.73L223.90-18.73Q218.65-13.27 218.48-11.51L218.48-11.51L218.48-11.51Q218.40-11.00 218.40-10.58ZM266.36-27.05L266.36-27.05L278.46-27.22L278.46-27.22Q278.71-27.05 278.71-26.96L278.71-26.96L278.71-26.96Q278.71-26.21 268.25-24.86L268.25-24.86L268.25-24.86Q257.80-23.52 256.96-23.27L256.96-23.27L256.96-23.27Q255.36-21.84 251.08-14.74L251.08-14.74L251.08-14.74Q246.79-7.64 246.79-4.37L246.79-4.37L246.79-4.37Q246.79-1.26 251.08-1.26L251.08-1.26L251.08-1.26Q253.09-1.26 256.37-2.52L256.37-2.52L256.37-2.52Q259.64-3.78 261.41-4.87L261.41-4.87L261.41-4.87Q266.11-7.81 271.49-13.52L271.49-13.52L271.49-13.52Q272.66-14.70 273.08-14.70L273.08-14.70L273.08-14.70Q273.34-14.70 273.34-14.20L273.34-14.20L273.34-14.20Q273.34-13.69 272.08-12.18L272.08-12.18L272.08-12.18Q267.71-6.80 262.25-3.53L262.25-3.53L262.25-3.53Q255.70 0.50 249.73 0.50L249.73 0.50L249.73 0.50Q247.13 0.50 245.49-0.63L245.49-0.63L245.49-0.63Q243.85-1.76 243.85-5.21L243.85-5.21L243.85-5.21Q243.85-8.65 246.88-14.66L246.88-14.66L246.88-14.66Q249.90-20.66 251.50-23.60L251.50-23.60L251.50-23.60Q250.32-23.35 249.48-23.35L249.48-23.35L249.48-23.35Q247.04-23.35 247.04-25.28L247.04-25.28L247.04-25.28Q247.04-26.71 249.06-27.30L249.06-27.30L249.06-27.30Q249.31-27.30 249.82-27.38L249.82-27.38L254.69-27.38L254.69-27.38Q256.20-29.32 258.13-31.84L258.13-31.84L258.13-31.84Q260.48-34.86 261.32-34.86L261.32-34.86L261.32-34.86Q262.16-34.86 263.42-34.19L263.42-34.19L263.42-34.19Q264.68-33.52 264.68-32.59L264.68-32.59L264.68-32.59Q264.68-31.67 260.65-27.13L260.65-27.13L260.65-27.13Q262.84-27.05 266.36-27.05Z" fill="url(#editing-shiny-gradient2)"></path></g></g><style>text {
  font-size: 64px;
  font-family: Arial Black;
  dominant-baseline: central;
  text-anchor: middle;
}</style></svg>