<svg width="1148.7575439453124px" height="100.4312744140625px" xmlns="http://www.w3.org/2000/svg" viewBox="-324.3787719726562 24.78436279296875 1148.7575439453124 100.4312744140625" style="background: rgba(0, 0, 0, 0);" preserveAspectRatio="xMidYMid"><defs><linearGradient id="editing-shiny-gradient" x1="0.04322727117869957" x2="0.9567727288213004" y1="0.2966316784620999" y2="0.7033683215379001" gradientUnits="objectBoundingBox"><stop offset="0.0" stop-color="#ffb200"></stop><stop offset="0.5" stop-color="#e10057"></stop><stop offset="1.0" stop-color="#5A1A80"></stop></linearGradient><linearGradient id="editing-shiny-gradient2" x1="0" x2="0" y1="0" y2="1"><stop offset="0.2" stop-color="#fff" stop-opacity="0.8"></stop><stop offset="0.8" stop-color="#fff" stop-opacity="0"></stop></linearGradient><filter id="editing-shiny2" x="-100%" y="-100%" width="300%" height="300%"><feMorphology operator="erode" radius="2"></feMorphology></filter><filter id="editing-shiny" x="-100%" y="-100%" width="300%" height="300%"><feFlood flood-color="#fff" result="flood"></feFlood><feConvolveMatrix in="SourceGraphic" result="conv" order="8,8" divisor="1" kernelMatrix="0 0 0 0 0 0 0 0 0 0 0 1 1 0 0 0 0 0 0 1 1 0 0 0 0 0 1 0 0 1 0 0 0 0 1 0 0 1 0 0 0 1 0 0 0 0 1 0 0 1 1 0 0 1 1 0 0 0 0 1 1 0 0 0 "></feConvolveMatrix><feOffset dx="0" dy="4" in="conv" result="offset"></feOffset><feComposite operator="in" in="flood" in2="offset" result="comp"></feComposite><feGaussianBlur in="offset" stdDeviation="3" result="shadow"></feGaussianBlur><feColorMatrix in="shadow" type="matrix" values="0.7 0 0 0 0  0 0.7 0 0 0  0 0 0.7 0 0  0 0 0 0.3 0" result="dark-shadow"></feColorMatrix><feOffset dx="0" dy="4" in="dark-shadow" result="offset-shadow"></feOffset><feOffset dx="0" dy="2" in="conv" result="offset-2"></feOffset><feComposite operator="out" in="offset" in2="offset-2" result="edge-diff"></feComposite><feGaussianBlur in="edge-diff" stdDeviation="1" result="edge-blur"></feGaussianBlur><feColorMatrix in="edge-blur" result="edge-shadow" type="matrix" values="0 0 0 0 0  0 0 0 0 0  0 0 0 0 0  0 0 0 0.5 0"></feColorMatrix><feComposite operator="in" in="edge-shadow" in2="offset" result="edge-shadow-in"></feComposite><feOffset dx="0" dy="1" in="edge-shadow-in" result="edge-shadow-final"></feOffset><feMerge result="out"><feMergeNode in="offset-shadow"></feMergeNode><feMergeNode in="comp"></feMergeNode><feMergeNode in="edge-shadow-final"></feMergeNode><feMergeNode in="SourceGraphic"></feMergeNode></feMerge></filter></defs><g filter="url(#editing-shiny)"><g transform="translate(-165.72000122070312, 97.58468818664551)"><path d="M5.75-6.41L5.75-38.41L5.75-38.41Q5.75-39.72 6.25-40.89L6.25-40.89L6.25-40.89Q6.75-42.06 7.63-42.92L7.63-42.92L7.63-42.92Q8.50-43.78 9.67-44.30L9.67-44.30L9.67-44.30Q10.84-44.81 12.16-44.81L12.16-44.81L36.47-44.81L36.47-44.81Q37.78-44.81 38.95-44.30L38.95-44.30L38.95-44.30Q40.13-43.78 41-42.92L41-42.92L41-42.92Q41.88-42.06 42.38-40.89L42.38-40.89L42.38-40.89Q42.88-39.72 42.88-38.41L42.88-38.41L42.88-32.63L36.47-32.63L36.47-38.41L12.16-38.41L12.16-6.41L36.47-6.41L36.47-12.16L42.88-12.16L42.88-6.41L42.88-6.41Q42.88-5.09 42.38-3.92L42.38-3.92L42.38-3.92Q41.88-2.75 41-1.88L41-1.88L41-1.88Q40.13-1 38.95-0.50L38.95-0.50L38.95-0.50Q37.78 0 36.47 0L36.47 0L12.16 0L12.16 0Q10.84 0 9.67-0.50L9.67-0.50L9.67-0.50Q8.50-1 7.63-1.88L7.63-1.88L7.63-1.88Q6.75-2.75 6.25-3.92L6.25-3.92L6.25-3.92Q5.75-5.09 5.75-6.41L5.75-6.41ZM53.13 0L53.13-44.81L85.78-44.81L85.78-38.41L59.53-38.41L59.53-25.59L81.94-25.59L81.94-19.19L59.53-19.19L59.53-6.41L85.78-6.41L85.78 0L53.13 0ZM123.53-19.19L101.78-19.19L101.78-19.19Q100.47-19.19 99.30-19.70L99.30-19.70L99.30-19.70Q98.13-20.22 97.25-21.08L97.25-21.08L97.25-21.08Q96.38-21.94 95.88-23.11L95.88-23.11L95.88-23.11Q95.38-24.28 95.38-25.59L95.38-25.59L95.38-38.41L95.38-38.41Q95.38-39.72 95.88-40.89L95.88-40.89L95.88-40.89Q96.38-42.06 97.25-42.92L97.25-42.92L97.25-42.92Q98.13-43.78 99.30-44.30L99.30-44.30L99.30-44.30Q100.47-44.81 101.78-44.81L101.78-44.81L123.53-44.81L123.53-44.81Q124.84-44.81 126.02-44.30L126.02-44.30L126.02-44.30Q127.19-43.78 128.06-42.92L128.06-42.92L128.06-42.92Q128.94-42.06 129.44-40.89L129.44-40.89L129.44-40.89Q129.94-39.72 129.94-38.41L129.94-38.41L129.94-32.63L123.53-32.63L123.53-38.41L101.78-38.41L101.78-25.59L123.53-25.59L123.53-25.59Q124.84-25.59 126.02-25.09L126.02-25.09L126.02-25.09Q127.19-24.59 128.06-23.72L128.06-23.72L128.06-23.72Q128.94-22.84 129.44-21.67L129.44-21.67L129.44-21.67Q129.94-20.50 129.94-19.19L129.94-19.19L129.94-6.41L129.94-6.41Q129.94-5.09 129.44-3.92L129.44-3.92L129.44-3.92Q128.94-2.75 128.06-1.88L128.06-1.88L128.06-1.88Q127.19-1 126.02-0.50L126.02-0.50L126.02-0.50Q124.84 0 123.53 0L123.53 0L101.16 0L101.16 0Q99.84 0 98.67-0.50L98.67-0.50L98.67-0.50Q97.50-1 96.63-1.88L96.63-1.88L96.63-1.88Q95.75-2.75 95.25-3.92L95.25-3.92L95.25-3.92Q94.75-5.09 94.75-6.41L94.75-6.41L94.75-12.16L101.16-12.16L101.16-6.41L123.53-6.41L123.53-19.19ZM149.16-38.03L147.13-23.81L142.88-23.81L140.84-38.03L140.84-44.81L149.16-44.81L149.16-38.03ZM158.75-6.16L179.50-6.16L179.50-13.88L164.91-13.88L164.91-13.88Q163.63-13.88 162.50-14.36L162.50-14.36L162.50-14.36Q161.38-14.84 160.55-15.67L160.55-15.67L160.55-15.67Q159.72-16.50 159.23-17.63L159.23-17.63L159.23-17.63Q158.75-18.75 158.75-20.03L158.75-20.03L158.75-27.13L158.75-27.13Q158.75-28.41 159.23-29.53L159.23-29.53L159.23-29.53Q159.72-30.66 160.55-31.48L160.55-31.48L160.55-31.48Q161.38-32.31 162.50-32.80L162.50-32.80L162.50-32.80Q163.63-33.28 164.91-33.28L164.91-33.28L184.38-33.28L184.38-27.13L164.91-27.13L164.91-20.03L179.50-20.03L179.50-20.03Q180.78-20.03 181.89-19.55L181.89-19.55L181.89-19.55Q183-19.06 183.84-18.23L183.84-18.23L183.84-18.23Q184.69-17.41 185.17-16.28L185.17-16.28L185.17-16.28Q185.66-15.16 185.66-13.88L185.66-13.88L185.66-6.16L185.66-6.16Q185.66-4.88 185.17-3.75L185.17-3.75L185.17-3.75Q184.69-2.63 183.84-1.80L183.84-1.80L183.84-1.80Q183-0.97 181.89-0.48L181.89-0.48L181.89-0.48Q180.78 0 179.50 0L179.50 0L158.75 0L158.75-6.16ZM215.06 0L215.06-44.81L247.72-44.81L247.72-38.41L221.47-38.41L221.47-25.59L243.88-25.59L243.88-19.19L221.47-19.19L221.47 0L215.06 0ZM266.91-44.81L273.31-44.81L290.59 0L284.19 0L280.22-10.31L260-10.31L256.03 0L249.63 0L266.91-44.81ZM270.13-36.47L262.44-16.72L277.75-16.72L270.13-36.47ZM314.31 0L307.25 0L289.97-44.81L296.84-44.81L310.78-7.94L324.75-44.81L331.59-44.81L314.31 0ZM377.66-38.41L377.66-6.41L377.66-6.41Q377.66-5.09 377.16-3.92L377.16-3.92L377.16-3.92Q376.66-2.75 375.78-1.88L375.78-1.88L375.78-1.88Q374.91-1 373.73-0.50L373.73-0.50L373.73-0.50Q372.56 0 371.25 0L371.25 0L345.66 0L345.66 0Q344.34 0 343.17-0.50L343.17-0.50L343.17-0.50Q342-1 341.13-1.88L341.13-1.88L341.13-1.88Q340.25-2.75 339.75-3.92L339.75-3.92L339.75-3.92Q339.25-5.09 339.25-6.41L339.25-6.41L339.25-38.41L339.25-38.41Q339.25-39.72 339.75-40.89L339.75-40.89L339.75-40.89Q340.25-42.06 341.13-42.92L341.13-42.92L341.13-42.92Q342-43.78 343.17-44.30L343.17-44.30L343.17-44.30Q344.34-44.81 345.66-44.81L345.66-44.81L371.25-44.81L371.25-44.81Q372.56-44.81 373.73-44.30L373.73-44.30L373.73-44.30Q374.91-43.78 375.78-42.92L375.78-42.92L375.78-42.92Q376.66-42.06 377.16-40.89L377.16-40.89L377.16-40.89Q377.66-39.72 377.66-38.41L377.66-38.41ZM371.25-38.41L345.66-38.41L345.66-6.41L371.25-6.41L371.25-38.41ZM389.16-6.41L389.16-44.81L395.56-44.81L395.56-6.41L421.16-6.41L421.16-44.81L427.56-44.81L427.56-6.41L427.56-6.41Q427.56-5.09 427.06-3.92L427.06-3.92L427.06-3.92Q426.56-2.75 425.69-1.88L425.69-1.88L425.69-1.88Q424.81-1 423.64-0.50L423.64-0.50L423.64-0.50Q422.47 0 421.16 0L421.16 0L395.56 0L395.56 0Q394.25 0 393.08-0.50L393.08-0.50L393.08-0.50Q391.91-1 391.03-1.88L391.03-1.88L391.03-1.88Q390.16-2.75 389.66-3.92L389.66-3.92L389.66-3.92Q389.16-5.09 389.16-6.41L389.16-6.41ZM474.47-33.91L474.47-28.81L474.47-28.81Q474.47-19.44 466.47-18.13L466.47-18.13L474.91 0L467.81 0L459.50-17.91L445.47-17.91L445.47 0L439.06 0L439.06-44.81L463.59-44.81L463.59-44.81Q474.47-44.81 474.47-33.91L474.47-33.91ZM445.47-38.41L445.47-24.31L463.25-24.31L463.25-24.31Q465.81-24.31 466.94-25.44L466.94-25.44L466.94-25.44Q468.06-26.56 468.06-29.13L468.06-29.13L468.06-33.59L468.06-33.59Q468.06-36.16 466.94-37.28L466.94-37.28L466.94-37.28Q465.81-38.41 463.25-38.41L463.25-38.41L445.47-38.41ZM485.16-44.81L491.56-44.81L491.56 0L485.16 0L485.16-44.81ZM499.22-38.41L499.22-44.81L535.06-44.81L535.06-38.41L520.34-38.41L520.34 0L513.94 0L513.94-38.41L499.22-38.41ZM542.75 0L542.75-44.81L575.41-44.81L575.41-38.41L549.16-38.41L549.16-25.59L571.56-25.59L571.56-19.19L549.16-19.19L549.16-6.41L575.41-6.41L575.41 0L542.75 0ZM632.34-19.19L610.59-19.19L610.59-19.19Q609.28-19.19 608.11-19.70L608.11-19.70L608.11-19.70Q606.94-20.22 606.06-21.08L606.06-21.08L606.06-21.08Q605.19-21.94 604.69-23.11L604.69-23.11L604.69-23.11Q604.19-24.28 604.19-25.59L604.19-25.59L604.19-38.41L604.19-38.41Q604.19-39.72 604.69-40.89L604.69-40.89L604.69-40.89Q605.19-42.06 606.06-42.92L606.06-42.92L606.06-42.92Q606.94-43.78 608.11-44.30L608.11-44.30L608.11-44.30Q609.28-44.81 610.59-44.81L610.59-44.81L632.34-44.81L632.34-44.81Q633.66-44.81 634.83-44.30L634.83-44.30L634.83-44.30Q636-43.78 636.88-42.92L636.88-42.92L636.88-42.92Q637.75-42.06 638.25-40.89L638.25-40.89L638.25-40.89Q638.75-39.72 638.75-38.41L638.75-38.41L638.75-32.63L632.34-32.63L632.34-38.41L610.59-38.41L610.59-25.59L632.34-25.59L632.34-25.59Q633.66-25.59 634.83-25.09L634.83-25.09L634.83-25.09Q636-24.59 636.88-23.72L636.88-23.72L636.88-23.72Q637.75-22.84 638.25-21.67L638.25-21.67L638.25-21.67Q638.75-20.50 638.75-19.19L638.75-19.19L638.75-6.41L638.75-6.41Q638.75-5.09 638.25-3.92L638.25-3.92L638.25-3.92Q637.75-2.75 636.88-1.88L636.88-1.88L636.88-1.88Q636-1 634.83-0.50L634.83-0.50L634.83-0.50Q633.66 0 632.34 0L632.34 0L609.97 0L609.97 0Q608.66 0 607.48-0.50L607.48-0.50L607.48-0.50Q606.31-1 605.44-1.88L605.44-1.88L605.44-1.88Q604.56-2.75 604.06-3.92L604.06-3.92L604.06-3.92Q603.56-5.09 603.56-6.41L603.56-6.41L603.56-12.16L609.97-12.16L609.97-6.41L632.34-6.41L632.34-19.19ZM688.69-38.41L688.69-6.41L688.69-6.41Q688.69-5.09 688.19-3.92L688.19-3.92L688.19-3.92Q687.69-2.75 686.81-1.88L686.81-1.88L686.81-1.88Q685.94-1 684.77-0.50L684.77-0.50L684.77-0.50Q683.59 0 682.28 0L682.28 0L656.69 0L656.69 0Q655.38 0 654.20-0.50L654.20-0.50L654.20-0.50Q653.03-1 652.16-1.88L652.16-1.88L652.16-1.88Q651.28-2.75 650.78-3.92L650.78-3.92L650.78-3.92Q650.28-5.09 650.28-6.41L650.28-6.41L650.28-38.41L650.28-38.41Q650.28-39.72 650.78-40.89L650.78-40.89L650.78-40.89Q651.28-42.06 652.16-42.92L652.16-42.92L652.16-42.92Q653.03-43.78 654.20-44.30L654.20-44.30L654.20-44.30Q655.38-44.81 656.69-44.81L656.69-44.81L682.28-44.81L682.28-44.81Q683.59-44.81 684.77-44.30L684.77-44.30L684.77-44.30Q685.94-43.78 686.81-42.92L686.81-42.92L686.81-42.92Q687.69-42.06 688.19-40.89L688.19-40.89L688.19-40.89Q688.69-39.72 688.69-38.41L688.69-38.41ZM682.28-38.41L656.69-38.41L656.69-6.41L682.28-6.41L682.28-38.41ZM706.59-34.75L706.59 0L700.19 0L700.19-44.81L706.59-44.81L733.53-10.06L733.53-44.81L739.94-44.81L739.94 0L733.53 0L706.59-34.75ZM751.44-6.41L751.44-38.41L751.44-38.41Q751.44-39.72 751.94-40.89L751.94-40.89L751.94-40.89Q752.44-42.06 753.31-42.92L753.31-42.92L753.31-42.92Q754.19-43.78 755.36-44.30L755.36-44.30L755.36-44.30Q756.53-44.81 757.84-44.81L757.84-44.81L782.16-44.81L782.16-44.81Q783.47-44.81 784.64-44.30L784.64-44.30L784.64-44.30Q785.81-43.78 786.69-42.92L786.69-42.92L786.69-42.92Q787.56-42.06 788.06-40.89L788.06-40.89L788.06-40.89Q788.56-39.72 788.56-38.41L788.56-38.41L788.56-32.63L782.16-32.63L782.16-38.41L757.84-38.41L757.84-6.41L782.16-6.41L782.16-17.28L770-17.28L770-23.69L788.56-23.69L788.56-6.41L788.56-6.41Q788.56-5.09 788.06-3.92L788.06-3.92L788.06-3.92Q787.56-2.75 786.69-1.88L786.69-1.88L786.69-1.88Q785.81-1 784.64-0.50L784.64-0.50L784.64-0.50Q783.47 0 782.16 0L782.16 0L757.84 0L757.84 0Q756.53 0 755.36-0.50L755.36-0.50L755.36-0.50Q754.19-1 753.31-1.88L753.31-1.88L753.31-1.88Q752.44-2.75 751.94-3.92L751.94-3.92L751.94-3.92Q751.44-5.09 751.44-6.41L751.44-6.41ZM798.78-6.16L819.53-6.16L819.53-13.88L804.94-13.88L804.94-13.88Q803.66-13.88 802.53-14.36L802.53-14.36L802.53-14.36Q801.41-14.84 800.58-15.67L800.58-15.67L800.58-15.67Q799.75-16.50 799.27-17.63L799.27-17.63L799.27-17.63Q798.78-18.75 798.78-20.03L798.78-20.03L798.78-27.13L798.78-27.13Q798.78-28.41 799.27-29.53L799.27-29.53L799.27-29.53Q799.75-30.66 800.58-31.48L800.58-31.48L800.58-31.48Q801.41-32.31 802.53-32.80L802.53-32.80L802.53-32.80Q803.66-33.28 804.94-33.28L804.94-33.28L824.41-33.28L824.41-27.13L804.94-27.13L804.94-20.03L819.53-20.03L819.53-20.03Q820.81-20.03 821.92-19.55L821.92-19.55L821.92-19.55Q823.03-19.06 823.88-18.23L823.88-18.23L823.88-18.23Q824.72-17.41 825.20-16.28L825.20-16.28L825.20-16.28Q825.69-15.16 825.69-13.88L825.69-13.88L825.69-6.16L825.69-6.16Q825.69-4.88 825.20-3.75L825.20-3.75L825.20-3.75Q824.72-2.63 823.88-1.80L823.88-1.80L823.88-1.80Q823.03-0.97 821.92-0.48L821.92-0.48L821.92-0.48Q820.81 0 819.53 0L819.53 0L798.78 0L798.78-6.16Z" fill="url(#editing-shiny-gradient)"></path></g></g><g filter="url(#editing-shiny2)"><g transform="translate(-165.72000122070312, 97.40500068664551)"><path d="M5.75-6.41L5.75-38.41L5.75-38.41Q5.75-39.72 6.25-40.89L6.25-40.89L6.25-40.89Q6.75-42.06 7.63-42.92L7.63-42.92L7.63-42.92Q8.50-43.78 9.67-44.30L9.67-44.30L9.67-44.30Q10.84-44.81 12.16-44.81L12.16-44.81L36.47-44.81L36.47-44.81Q37.78-44.81 38.95-44.30L38.95-44.30L38.95-44.30Q40.13-43.78 41-42.92L41-42.92L41-42.92Q41.88-42.06 42.38-40.89L42.38-40.89L42.38-40.89Q42.88-39.72 42.88-38.41L42.88-38.41L42.88-32.63L36.47-32.63L36.47-38.41L12.16-38.41L12.16-6.41L36.47-6.41L36.47-12.16L42.88-12.16L42.88-6.41L42.88-6.41Q42.88-5.09 42.38-3.92L42.38-3.92L42.38-3.92Q41.88-2.75 41-1.88L41-1.88L41-1.88Q40.13-1 38.95-0.50L38.95-0.50L38.95-0.50Q37.78 0 36.47 0L36.47 0L12.16 0L12.16 0Q10.84 0 9.67-0.50L9.67-0.50L9.67-0.50Q8.50-1 7.63-1.88L7.63-1.88L7.63-1.88Q6.75-2.75 6.25-3.92L6.25-3.92L6.25-3.92Q5.75-5.09 5.75-6.41L5.75-6.41ZM53.13 0L53.13-44.81L85.78-44.81L85.78-38.41L59.53-38.41L59.53-25.59L81.94-25.59L81.94-19.19L59.53-19.19L59.53-6.41L85.78-6.41L85.78 0L53.13 0ZM123.53-19.19L101.78-19.19L101.78-19.19Q100.47-19.19 99.30-19.70L99.30-19.70L99.30-19.70Q98.13-20.22 97.25-21.08L97.25-21.08L97.25-21.08Q96.38-21.94 95.88-23.11L95.88-23.11L95.88-23.11Q95.38-24.28 95.38-25.59L95.38-25.59L95.38-38.41L95.38-38.41Q95.38-39.72 95.88-40.89L95.88-40.89L95.88-40.89Q96.38-42.06 97.25-42.92L97.25-42.92L97.25-42.92Q98.13-43.78 99.30-44.30L99.30-44.30L99.30-44.30Q100.47-44.81 101.78-44.81L101.78-44.81L123.53-44.81L123.53-44.81Q124.84-44.81 126.02-44.30L126.02-44.30L126.02-44.30Q127.19-43.78 128.06-42.92L128.06-42.92L128.06-42.92Q128.94-42.06 129.44-40.89L129.44-40.89L129.44-40.89Q129.94-39.72 129.94-38.41L129.94-38.41L129.94-32.63L123.53-32.63L123.53-38.41L101.78-38.41L101.78-25.59L123.53-25.59L123.53-25.59Q124.84-25.59 126.02-25.09L126.02-25.09L126.02-25.09Q127.19-24.59 128.06-23.72L128.06-23.72L128.06-23.72Q128.94-22.84 129.44-21.67L129.44-21.67L129.44-21.67Q129.94-20.50 129.94-19.19L129.94-19.19L129.94-6.41L129.94-6.41Q129.94-5.09 129.44-3.92L129.44-3.92L129.44-3.92Q128.94-2.75 128.06-1.88L128.06-1.88L128.06-1.88Q127.19-1 126.02-0.50L126.02-0.50L126.02-0.50Q124.84 0 123.53 0L123.53 0L101.16 0L101.16 0Q99.84 0 98.67-0.50L98.67-0.50L98.67-0.50Q97.50-1 96.63-1.88L96.63-1.88L96.63-1.88Q95.75-2.75 95.25-3.92L95.25-3.92L95.25-3.92Q94.75-5.09 94.75-6.41L94.75-6.41L94.75-12.16L101.16-12.16L101.16-6.41L123.53-6.41L123.53-19.19ZM149.16-38.03L147.13-23.81L142.88-23.81L140.84-38.03L140.84-44.81L149.16-44.81L149.16-38.03ZM158.75-6.16L179.50-6.16L179.50-13.88L164.91-13.88L164.91-13.88Q163.63-13.88 162.50-14.36L162.50-14.36L162.50-14.36Q161.38-14.84 160.55-15.67L160.55-15.67L160.55-15.67Q159.72-16.50 159.23-17.63L159.23-17.63L159.23-17.63Q158.75-18.75 158.75-20.03L158.75-20.03L158.75-27.13L158.75-27.13Q158.75-28.41 159.23-29.53L159.23-29.53L159.23-29.53Q159.72-30.66 160.55-31.48L160.55-31.48L160.55-31.48Q161.38-32.31 162.50-32.80L162.50-32.80L162.50-32.80Q163.63-33.28 164.91-33.28L164.91-33.28L184.38-33.28L184.38-27.13L164.91-27.13L164.91-20.03L179.50-20.03L179.50-20.03Q180.78-20.03 181.89-19.55L181.89-19.55L181.89-19.55Q183-19.06 183.84-18.23L183.84-18.23L183.84-18.23Q184.69-17.41 185.17-16.28L185.17-16.28L185.17-16.28Q185.66-15.16 185.66-13.88L185.66-13.88L185.66-6.16L185.66-6.16Q185.66-4.88 185.17-3.75L185.17-3.75L185.17-3.75Q184.69-2.63 183.84-1.80L183.84-1.80L183.84-1.80Q183-0.97 181.89-0.48L181.89-0.48L181.89-0.48Q180.78 0 179.50 0L179.50 0L158.75 0L158.75-6.16ZM215.06 0L215.06-44.81L247.72-44.81L247.72-38.41L221.47-38.41L221.47-25.59L243.88-25.59L243.88-19.19L221.47-19.19L221.47 0L215.06 0ZM266.91-44.81L273.31-44.81L290.59 0L284.19 0L280.22-10.31L260-10.31L256.03 0L249.63 0L266.91-44.81ZM270.13-36.47L262.44-16.72L277.75-16.72L270.13-36.47ZM314.31 0L307.25 0L289.97-44.81L296.84-44.81L310.78-7.94L324.75-44.81L331.59-44.81L314.31 0ZM377.66-38.41L377.66-6.41L377.66-6.41Q377.66-5.09 377.16-3.92L377.16-3.92L377.16-3.92Q376.66-2.75 375.78-1.88L375.78-1.88L375.78-1.88Q374.91-1 373.73-0.50L373.73-0.50L373.73-0.50Q372.56 0 371.25 0L371.25 0L345.66 0L345.66 0Q344.34 0 343.17-0.50L343.17-0.50L343.17-0.50Q342-1 341.13-1.88L341.13-1.88L341.13-1.88Q340.25-2.75 339.75-3.92L339.75-3.92L339.75-3.92Q339.25-5.09 339.25-6.41L339.25-6.41L339.25-38.41L339.25-38.41Q339.25-39.72 339.75-40.89L339.75-40.89L339.75-40.89Q340.25-42.06 341.13-42.92L341.13-42.92L341.13-42.92Q342-43.78 343.17-44.30L343.17-44.30L343.17-44.30Q344.34-44.81 345.66-44.81L345.66-44.81L371.25-44.81L371.25-44.81Q372.56-44.81 373.73-44.30L373.73-44.30L373.73-44.30Q374.91-43.78 375.78-42.92L375.78-42.92L375.78-42.92Q376.66-42.06 377.16-40.89L377.16-40.89L377.16-40.89Q377.66-39.72 377.66-38.41L377.66-38.41ZM371.25-38.41L345.66-38.41L345.66-6.41L371.25-6.41L371.25-38.41ZM389.16-6.41L389.16-44.81L395.56-44.81L395.56-6.41L421.16-6.41L421.16-44.81L427.56-44.81L427.56-6.41L427.56-6.41Q427.56-5.09 427.06-3.92L427.06-3.92L427.06-3.92Q426.56-2.75 425.69-1.88L425.69-1.88L425.69-1.88Q424.81-1 423.64-0.50L423.64-0.50L423.64-0.50Q422.47 0 421.16 0L421.16 0L395.56 0L395.56 0Q394.25 0 393.08-0.50L393.08-0.50L393.08-0.50Q391.91-1 391.03-1.88L391.03-1.88L391.03-1.88Q390.16-2.75 389.66-3.92L389.66-3.92L389.66-3.92Q389.16-5.09 389.16-6.41L389.16-6.41ZM474.47-33.91L474.47-28.81L474.47-28.81Q474.47-19.44 466.47-18.13L466.47-18.13L474.91 0L467.81 0L459.50-17.91L445.47-17.91L445.47 0L439.06 0L439.06-44.81L463.59-44.81L463.59-44.81Q474.47-44.81 474.47-33.91L474.47-33.91ZM445.47-38.41L445.47-24.31L463.25-24.31L463.25-24.31Q465.81-24.31 466.94-25.44L466.94-25.44L466.94-25.44Q468.06-26.56 468.06-29.13L468.06-29.13L468.06-33.59L468.06-33.59Q468.06-36.16 466.94-37.28L466.94-37.28L466.94-37.28Q465.81-38.41 463.25-38.41L463.25-38.41L445.47-38.41ZM485.16-44.81L491.56-44.81L491.56 0L485.16 0L485.16-44.81ZM499.22-38.41L499.22-44.81L535.06-44.81L535.06-38.41L520.34-38.41L520.34 0L513.94 0L513.94-38.41L499.22-38.41ZM542.75 0L542.75-44.81L575.41-44.81L575.41-38.41L549.16-38.41L549.16-25.59L571.56-25.59L571.56-19.19L549.16-19.19L549.16-6.41L575.41-6.41L575.41 0L542.75 0ZM632.34-19.19L610.59-19.19L610.59-19.19Q609.28-19.19 608.11-19.70L608.11-19.70L608.11-19.70Q606.94-20.22 606.06-21.08L606.06-21.08L606.06-21.08Q605.19-21.94 604.69-23.11L604.69-23.11L604.69-23.11Q604.19-24.28 604.19-25.59L604.19-25.59L604.19-38.41L604.19-38.41Q604.19-39.72 604.69-40.89L604.69-40.89L604.69-40.89Q605.19-42.06 606.06-42.92L606.06-42.92L606.06-42.92Q606.94-43.78 608.11-44.30L608.11-44.30L608.11-44.30Q609.28-44.81 610.59-44.81L610.59-44.81L632.34-44.81L632.34-44.81Q633.66-44.81 634.83-44.30L634.83-44.30L634.83-44.30Q636-43.78 636.88-42.92L636.88-42.92L636.88-42.92Q637.75-42.06 638.25-40.89L638.25-40.89L638.25-40.89Q638.75-39.72 638.75-38.41L638.75-38.41L638.75-32.63L632.34-32.63L632.34-38.41L610.59-38.41L610.59-25.59L632.34-25.59L632.34-25.59Q633.66-25.59 634.83-25.09L634.83-25.09L634.83-25.09Q636-24.59 636.88-23.72L636.88-23.72L636.88-23.72Q637.75-22.84 638.25-21.67L638.25-21.67L638.25-21.67Q638.75-20.50 638.75-19.19L638.75-19.19L638.75-6.41L638.75-6.41Q638.75-5.09 638.25-3.92L638.25-3.92L638.25-3.92Q637.75-2.75 636.88-1.88L636.88-1.88L636.88-1.88Q636-1 634.83-0.50L634.83-0.50L634.83-0.50Q633.66 0 632.34 0L632.34 0L609.97 0L609.97 0Q608.66 0 607.48-0.50L607.48-0.50L607.48-0.50Q606.31-1 605.44-1.88L605.44-1.88L605.44-1.88Q604.56-2.75 604.06-3.92L604.06-3.92L604.06-3.92Q603.56-5.09 603.56-6.41L603.56-6.41L603.56-12.16L609.97-12.16L609.97-6.41L632.34-6.41L632.34-19.19ZM688.69-38.41L688.69-6.41L688.69-6.41Q688.69-5.09 688.19-3.92L688.19-3.92L688.19-3.92Q687.69-2.75 686.81-1.88L686.81-1.88L686.81-1.88Q685.94-1 684.77-0.50L684.77-0.50L684.77-0.50Q683.59 0 682.28 0L682.28 0L656.69 0L656.69 0Q655.38 0 654.20-0.50L654.20-0.50L654.20-0.50Q653.03-1 652.16-1.88L652.16-1.88L652.16-1.88Q651.28-2.75 650.78-3.92L650.78-3.92L650.78-3.92Q650.28-5.09 650.28-6.41L650.28-6.41L650.28-38.41L650.28-38.41Q650.28-39.72 650.78-40.89L650.78-40.89L650.78-40.89Q651.28-42.06 652.16-42.92L652.16-42.92L652.16-42.92Q653.03-43.78 654.20-44.30L654.20-44.30L654.20-44.30Q655.38-44.81 656.69-44.81L656.69-44.81L682.28-44.81L682.28-44.81Q683.59-44.81 684.77-44.30L684.77-44.30L684.77-44.30Q685.94-43.78 686.81-42.92L686.81-42.92L686.81-42.92Q687.69-42.06 688.19-40.89L688.19-40.89L688.19-40.89Q688.69-39.72 688.69-38.41L688.69-38.41ZM682.28-38.41L656.69-38.41L656.69-6.41L682.28-6.41L682.28-38.41ZM706.59-34.75L706.59 0L700.19 0L700.19-44.81L706.59-44.81L733.53-10.06L733.53-44.81L739.94-44.81L739.94 0L733.53 0L706.59-34.75ZM751.44-6.41L751.44-38.41L751.44-38.41Q751.44-39.72 751.94-40.89L751.94-40.89L751.94-40.89Q752.44-42.06 753.31-42.92L753.31-42.92L753.31-42.92Q754.19-43.78 755.36-44.30L755.36-44.30L755.36-44.30Q756.53-44.81 757.84-44.81L757.84-44.81L782.16-44.81L782.16-44.81Q783.47-44.81 784.64-44.30L784.64-44.30L784.64-44.30Q785.81-43.78 786.69-42.92L786.69-42.92L786.69-42.92Q787.56-42.06 788.06-40.89L788.06-40.89L788.06-40.89Q788.56-39.72 788.56-38.41L788.56-38.41L788.56-32.63L782.16-32.63L782.16-38.41L757.84-38.41L757.84-6.41L782.16-6.41L782.16-17.28L770-17.28L770-23.69L788.56-23.69L788.56-6.41L788.56-6.41Q788.56-5.09 788.06-3.92L788.06-3.92L788.06-3.92Q787.56-2.75 786.69-1.88L786.69-1.88L786.69-1.88Q785.81-1 784.64-0.50L784.64-0.50L784.64-0.50Q783.47 0 782.16 0L782.16 0L757.84 0L757.84 0Q756.53 0 755.36-0.50L755.36-0.50L755.36-0.50Q754.19-1 753.31-1.88L753.31-1.88L753.31-1.88Q752.44-2.75 751.94-3.92L751.94-3.92L751.94-3.92Q751.44-5.09 751.44-6.41L751.44-6.41ZM798.78-6.16L819.53-6.16L819.53-13.88L804.94-13.88L804.94-13.88Q803.66-13.88 802.53-14.36L802.53-14.36L802.53-14.36Q801.41-14.84 800.58-15.67L800.58-15.67L800.58-15.67Q799.75-16.50 799.27-17.63L799.27-17.63L799.27-17.63Q798.78-18.75 798.78-20.03L798.78-20.03L798.78-27.13L798.78-27.13Q798.78-28.41 799.27-29.53L799.27-29.53L799.27-29.53Q799.75-30.66 800.58-31.48L800.58-31.48L800.58-31.48Q801.41-32.31 802.53-32.80L802.53-32.80L802.53-32.80Q803.66-33.28 804.94-33.28L804.94-33.28L824.41-33.28L824.41-27.13L804.94-27.13L804.94-20.03L819.53-20.03L819.53-20.03Q820.81-20.03 821.92-19.55L821.92-19.55L821.92-19.55Q823.03-19.06 823.88-18.23L823.88-18.23L823.88-18.23Q824.72-17.41 825.20-16.28L825.20-16.28L825.20-16.28Q825.69-15.16 825.69-13.88L825.69-13.88L825.69-6.16L825.69-6.16Q825.69-4.88 825.20-3.75L825.20-3.75L825.20-3.75Q824.72-2.63 823.88-1.80L823.88-1.80L823.88-1.80Q823.03-0.97 821.92-0.48L821.92-0.48L821.92-0.48Q820.81 0 819.53 0L819.53 0L798.78 0L798.78-6.16Z" fill="url(#editing-shiny-gradient2)"></path></g></g><style>text {
  font-size: 64px;
  font-family: Arial Black;
  dominant-baseline: central;
  text-anchor: middle;
}</style></svg>