<svg width="694.7300292968749px" height="170.02501220703124px" xmlns="http://www.w3.org/2000/svg" viewBox="-97.36501464843747 -10.01250610351562 694.7300292968749 170.02501220703124" style="background: rgba(0, 0, 0, 0);" preserveAspectRatio="xMidYMid"><defs><linearGradient id="editing-gradient-gradient" x1="0" x2="1" y1="0.5" y2="0.5" gradientUnits="objectBoundingBox"><stop offset="0" stop-color="#f0f"></stop><stop offset="1" stop-color="#0ff"></stop></linearGradient></defs><g><g transform="translate(1.2450037002563477, 114.32875061035156)"><path d="M1.79-53.04L1.79-55.17L26.44-55.93L26.44-55.93Q43.95-55.93 43.95-41.99L43.95-41.99L43.95-41.99Q43.95-34.43 37.74-29.75L37.74-29.75L37.74-29.75Q31.54-25.08 23.29-25.08L23.29-25.08L23.29-25.08Q22.02-25.08 21.42-25.16L21.42-25.16L21.76-27.88L22.78-27.88L22.78-27.88Q29.16-27.88 32.55-31.11L32.55-31.11L32.55-31.11Q35.96-34.34 35.96-40.55L35.96-40.55L35.96-40.55Q35.96-46.75 33.32-49.77L33.32-49.77L33.32-49.77Q30.69-52.79 24.99-52.79L24.99-52.79L24.99-52.79Q21.59-52.79 18.36-51.68L18.36-51.68L18.36-51.68Q17.60-43.69 17.60-27.12L17.60-27.12L17.60-27.12Q17.60-10.54 18.62-2.98L18.62-2.98L18.62-2.98Q23.12-2.55 27.97-1.36L27.97-1.36L27.71 0.68L27.71 0.68Q21.42 0 14.07 0L14.07 0L14.07 0Q6.72 0 2.21 0.68L2.21 0.68L1.87-1.45L1.87-1.45Q5.70-2.64 10.03-3.23L10.03-3.23L10.03-3.23Q11.05-10.20 11.05-26.95L11.05-26.95L11.05-26.95Q11.05-43.69 10.12-51.68L10.12-51.68L10.12-51.68Q6.04-53.04 1.79-53.04L1.79-53.04ZM59.50-35.45L59.33-19.55L59.33-19.55Q59.33-17.09 59.33-11.77L59.33-11.77L59.33-11.77Q59.33-6.46 59.84-2.55L59.84-2.55L59.84-2.55Q62.22-2.04 65.20-0.94L65.20-0.94L65.03 0.68L65.03 0.68Q60.27 0 56.02 0L56.02 0L56.02 0Q51.77 0 47.43 0.51L47.43 0.51L47.18-1.10L47.18-1.10Q49.73-2.21 52.19-2.81L52.19-2.81L52.19-2.81Q52.96-8.25 53.04-19.55L53.04-19.55L53.21-35.45L53.21-35.45Q53.21-37.66 53.21-43.39L53.21-43.39L53.21-43.39Q53.21-49.13 52.62-55.17L52.62-55.17L52.62-55.17Q50.41-55.85 48.03-55.85L48.03-55.85L48.03-57.63L48.03-57.63Q56.53-58.23 64.26-60.44L64.26-60.44L64.69-58.91L64.69-58.91Q63.07-57.63 60.69-56.44L60.69-56.44L60.69-56.44Q59.67-50.83 59.50-35.45L59.50-35.45ZM73.10-14.96L73.10-14.96L73.10-14.96Q73.10-23.80 77.86-31.15L77.86-31.15L77.86-31.15Q82.62-38.51 90.61-41.23L90.61-41.23L90.61-41.23Q96.31-41.23 102.51-39.44L102.51-39.44L102.51-39.44Q103.70-41.23 104.47-43.95L104.47-43.95L106.25-43.44L106.25-43.44Q104.38-35.79 104.38-16.41L104.38-16.41L104.38-16.41Q104.38-7.74 104.98-2.81L104.98-2.81L104.98-2.81Q107.02-2.13 109.57-2.13L109.57-2.13L109.57-0.34L109.57-0.34Q104.13-0.09 98.09 1.28L98.09 1.28L97.50 0.94L97.50 0.94Q98.43-4.93 98.43-12.33L98.43-12.33L98.09-12.41L98.09-12.41Q95.12-8.16 91.04-4.17L91.04-4.17L91.04-4.17Q86.96-0.17 83.30 1.28L83.30 1.28L83.30 1.28Q78.63 1.28 75.86-3.91L75.86-3.91L75.86-3.91Q73.10-9.10 73.10-14.96ZM79.90-18.79L79.90-18.79L79.90-18.79Q79.90-14.62 81.39-10.16L81.39-10.16L81.39-10.16Q82.88-5.70 85.68-5.70L85.68-5.70L85.68-5.70Q88.66-5.70 92.91-9.95L92.91-9.95L92.91-9.95Q97.16-14.20 98.43-17.60L98.43-17.60L98.43-17.60Q98.43-30.26 97.84-33.91L97.84-33.91L97.84-33.91Q93.33-35.96 89.12-35.96L89.12-35.96L89.12-35.96Q84.92-35.96 82.71-33.91L82.71-33.91L82.71-33.91Q79.90-27.46 79.90-18.79ZM127.08-41.23L127.67-40.89L127.67-40.89Q126.06-31.03 126.06-15.73L126.06-15.73L126.06-15.73Q126.06-5.70 129.63-5.70L129.63-5.70L129.63-5.70Q132.69-5.70 137.15-9.99L137.15-9.99L137.15-9.99Q141.61-14.28 142.89-17.60L142.89-17.60L142.89-17.60Q142.89-29.92 141.95-37.40L141.95-37.40L141.95-37.40Q139.66-37.91 136.60-39.02L136.60-39.02L136.77-40.63L136.77-40.63Q141.53-39.95 145.78-39.95L145.78-39.95L145.78-39.95Q150.03-39.95 154.36-40.46L154.36-40.46L154.62-38.85L154.62-38.85Q152.07-37.74 149.60-37.15L149.60-37.15L149.60-37.15Q148.84-31.37 148.84-23.80L148.84-23.80L148.84-16.66L148.84-16.66Q148.84-3.15 149.43 2.89L149.43 2.89L149.43 2.89Q147.82 7.57 142.63 12.03L142.63 12.03L142.63 12.03Q137.45 16.49 132.35 18.28L132.35 18.28L132.35 18.28Q124.53 18.28 118.07 15.81L118.07 15.81L118.07 14.71L118.07 14.71Q121.21 10.97 121.64 5.19L121.64 5.19L123.42 5.19L123.42 5.19Q123.42 8.50 123.59 10.37L123.59 10.37L123.59 10.37Q128.35 13.01 134.47 13.01L134.47 13.01L134.47 13.01Q137.87 13.01 140.00 10.97L140.00 10.97L140.00 10.97Q141.95 5.78 142.42 1.57L142.42 1.57L142.42 1.57Q142.89-2.64 142.89-12.33L142.89-12.33L142.55-12.41L142.55-12.41Q140.00-8.59 135.49-4.29L135.49-4.29L135.49-4.29Q130.99 0 127.42 1.28L127.42 1.28L127.42 1.28Q122.49 1.28 121.04-3.40L121.04-3.40L121.04-3.40Q119.94-6.72 119.94-11.56L119.94-11.56L119.94-11.56Q119.94-12.33 119.94-13.26L119.94-13.26L120.36-37.15L120.36-37.15Q118.32-37.83 115.77-37.83L115.77-37.83L115.77-39.61L115.77-39.61Q121.13-39.87 127.08-41.23L127.08-41.23ZM173.57-35.45L173.40-19.55L173.40-19.55Q173.40-17.09 173.40-11.77L173.40-11.77L173.40-11.77Q173.40-6.46 173.91-2.55L173.91-2.55L173.91-2.55Q176.29-2.04 179.27-0.94L179.27-0.94L179.10 0.68L179.10 0.68Q174.34 0 170.09 0L170.09 0L170.09 0Q165.84 0 161.50 0.51L161.50 0.51L161.25-1.10L161.25-1.10Q163.80-2.21 166.26-2.81L166.26-2.81L166.26-2.81Q167.03-8.25 167.11-19.55L167.11-19.55L167.28-35.45L167.28-35.45Q167.28-37.66 167.28-43.39L167.28-43.39L167.28-43.39Q167.28-49.13 166.69-55.17L166.69-55.17L166.69-55.17Q164.48-55.85 162.10-55.85L162.10-55.85L162.10-57.63L162.10-57.63Q170.60-58.23 178.33-60.44L178.33-60.44L178.76-58.91L178.76-58.91Q177.14-57.63 174.76-56.44L174.76-56.44L174.76-56.44Q173.74-50.83 173.57-35.45L173.57-35.45ZM199.07-23.29L199.07-23.29L199.07-16.15L199.07-16.15Q199.07-6.97 199.67-2.55L199.67-2.55L199.67-2.55Q202.05-2.04 205.02-0.94L205.02-0.94L204.85 0.68L204.85 0.68Q200.09 0 195.84 0L195.84 0L195.84 0Q191.59 0 187.26 0.51L187.26 0.51L187.00-1.10L187.00-1.10Q189.55-2.21 192.02-2.81L192.02-2.81L192.02-2.81Q192.78-8.59 192.78-16.15L192.78-16.15L192.78-23.29L192.78-23.29Q192.78-30.18 192.10-37.06L192.10-37.06L192.10-37.06Q189.89-37.74 187.51-37.74L187.51-37.74L187.51-39.53L187.51-39.53Q194.06-39.95 199.58-41.23L199.58-41.23L200.18-40.89L200.18-40.89Q199.07-34.34 199.07-23.29ZM200.60-52.70L200.60-52.70L200.60-52.70Q200.01-51.60 198.52-49.90L198.52-49.90L198.52-49.90Q197.03-48.20 196.01-47.52L196.01-47.52L196.01-47.52Q194.99-48.20 193.50-49.90L193.50-49.90L193.50-49.90Q192.02-51.60 191.42-52.70L191.42-52.70L191.42-52.70Q191.93-53.72 193.38-55.04L193.38-55.04L193.38-55.04Q194.82-56.36 196.01-56.95L196.01-56.95L196.01-56.95Q197.12-56.27 198.56-54.95L198.56-54.95L198.56-54.95Q200.01-53.64 200.60-52.70ZM215.22-9.35L215.22-9.35L215.39-5.78L215.39-5.44L215.39-5.44Q219.30-4.00 222.79-4.00L222.79-4.00L222.79-4.00Q226.27-4.00 228.61-5.53L228.61-5.53L228.61-5.53Q230.95-7.06 230.95-10.63L230.95-10.63L230.95-10.63Q230.95-13.26 222.02-17.85L222.02-17.85L222.02-17.85Q218.71-19.55 215.90-21.97L215.90-21.97L215.90-21.97Q213.10-24.40 213.10-26.69L213.10-26.69L213.10-26.69Q213.10-31.20 217.90-35.74L217.90-35.74L217.90-35.74Q222.70-40.29 226.95-41.23L226.95-41.23L226.95-41.23Q232.39-41.23 237.49-39.87L237.49-39.87L237.49-38.68L237.49-38.68Q234.18-34.60 233.84-29.75L233.84-29.75L231.97-29.75L231.97-29.75Q231.97-33.07 231.80-34.94L231.80-34.94L231.80-34.94Q228.48-35.96 225.51-35.96L225.51-35.96L225.51-35.96Q222.53-35.96 220.19-34.81L220.19-34.81L220.19-34.81Q217.86-33.66 217.86-31.11L217.86-31.11L217.86-31.11Q217.86-29.58 220.66-27.54L220.66-27.54L220.66-27.54Q223.47-25.50 226.78-23.84L226.78-23.84L226.78-23.84Q230.10-22.19 232.90-19.72L232.90-19.72L232.90-19.72Q235.71-17.26 235.71-14.96L235.71-14.96L235.71-14.96Q235.71-9.78 230.99-4.97L230.99-4.97L230.99-4.97Q226.27-0.17 221.43 1.28L221.43 1.28L221.43 1.28Q215.31 1.28 209.70-0.51L209.70-0.51L209.70-1.70L209.70-1.70Q213.01-5.78 213.35-10.63L213.35-10.63L215.22-10.63L215.22-10.63Q215.22-10.63 215.22-9.35ZM255.00-16.58L255.00-16.58L255.00-16.58Q255.00-4.85 257.55-4.85L257.55-4.85L257.55-4.85Q262.23-4.85 267.24-9.35L267.24-9.35L268.09-8.50L268.09-8.50Q263.16-1.62 256.11 1.28L256.11 1.28L256.11 1.28Q251.26 1.28 249.90-3.15L249.90-3.15L249.90-3.15Q248.71-6.89 248.71-16.07L248.71-16.07L248.71-16.07Q248.71-17.68 248.71-19.55L248.71-19.55L249.05-36.47L244.46-36.47L244.29-36.64L244.29-36.64Q244.29-38.00 244.55-38.51L244.55-38.51L244.55-38.51Q251.69-43.18 253.90-48.20L253.90-48.20L253.90-48.20Q254.92-48.45 256.28-48.45L256.28-48.45L256.62-48.28L256.62-48.28Q255.77-43.18 255.60-40.04L255.60-40.04L267.50-40.46L267.84-40.12L267.84-40.12Q267.24-38.59 266.73-36.13L266.73-36.13L266.73-36.13Q262.40-36.38 255.34-36.38L255.34-36.38L255.00-19.55L255.00-19.55Q255.00-18.02 255.00-16.58ZM310.93-5.44L310.93-5.44L310.93-5.44Q317.82-5.44 324.79-12.07L324.79-12.07L325.98-10.97L325.98-10.97Q318.92-1.96 309.15 1.28L309.15 1.28L309.15 1.28Q298.95 1.28 293.80-5.14L293.80-5.14L293.80-5.14Q288.66-11.56 288.66-22.91L288.66-22.91L288.66-22.91Q288.66-34.26 294.91-43.99L294.91-43.99L294.91-43.99Q301.16-53.72 311.70-56.61L311.70-56.61L311.70-56.61Q320.28-56.61 329.21-55.00L329.21-55.00L329.12-53.13L329.12-53.13Q326.91-53.13 325.04-52.36L325.04-52.36L325.04-52.36Q322.92-47.35 322.24-40.63L322.24-40.63L320.11-40.63L320.11-40.63Q319.35-44.03 319.35-48.54L319.35-48.54L319.35-48.54Q315.35-50.66 309.78-50.66L309.78-50.66L309.78-50.66Q304.22-50.66 300.56-47.60L300.56-47.60L300.56-47.60Q296.74-41.05 296.31-31.71L296.31-31.71L296.31-31.71Q299.97-31.03 305.83-31.03L305.83-31.03L305.83-31.03Q315.27-31.03 317.05-34.68L317.05-34.68L318.75-34.34L318.75-34.34Q317.99-31.62 317.99-27.88L317.99-27.88L317.99-27.88Q317.99-24.14 318.50-20.40L318.50-20.40L316.54-20.06L316.54-20.06Q315.27-23.29 314.84-27.63L314.84-27.63L314.84-27.63Q311.61-27.88 305.62-27.88L305.62-27.88L305.62-27.88Q299.63-27.88 296.23-27.46L296.23-27.46L296.23-27.46Q296.48-11.48 303.79-7.14L303.79-7.14L303.79-7.14Q306.68-5.44 310.93-5.44ZM361.34-24.74L361.34-24.74L361.34-24.74Q361.34-34.26 357.43-34.26L357.43-34.26L357.43-34.26Q354.11-34.26 349.61-30.09L349.61-30.09L349.61-30.09Q345.10-25.93 343.57-22.36L343.57-22.36L343.57-22.36Q343.57-10.03 344.51-2.55L344.51-2.55L344.51-2.55Q346.80-2.04 349.86-0.94L349.86-0.94L349.69 0.68L349.69 0.68Q344.93 0 340.68 0L340.68 0L340.68 0Q336.43 0 332.10 0.51L332.10 0.51L331.84-1.10L331.84-1.10Q334.39-2.21 336.86-2.81L336.86-2.81L336.86-2.81Q337.62-8.59 337.62-16.15L337.62-16.15L337.62-23.29L337.62-23.29Q337.62-31.11 337.03-37.15L337.03-37.15L337.03-37.15Q334.99-37.83 332.44-37.83L332.44-37.83L332.44-39.61L332.44-39.61Q337.88-39.87 343.91-41.23L343.91-41.23L344.51-40.89L344.51-40.89Q343.57-35.02 343.57-27.63L343.57-27.63L343.91-27.54L343.91-27.54Q346.80-31.54 351.43-35.74L351.43-35.74L351.43-35.74Q356.07-39.95 359.81-41.23L359.81-41.23L359.81-41.23Q364.99-41.23 366.52-36.55L366.52-36.55L366.52-36.55Q367.54-33.23 367.54-28.39L367.54-28.39L367.54-28.39Q367.54-27.63 367.54-26.69L367.54-26.69L367.12-2.81L367.12-2.81Q369.58-2.21 372.13-1.10L372.13-1.10L371.88 0.51L371.88 0.51Q367.80 0 364.95 0L364.95 0L364.95 0Q362.10 0 359.55 0.17L359.55 0.17L359.55-1.02L359.55-1.02Q360.91-7.65 361.25-22.87L361.25-22.87L361.25-22.87Q361.34-23.72 361.34-24.74ZM379.36-14.96L379.36-14.96L379.36-14.96Q379.36-23.80 384.12-31.15L384.12-31.15L384.12-31.15Q388.88-38.51 396.87-41.23L396.87-41.23L396.87-41.23Q401.46-41.23 405.20-40.38L405.20-40.38L405.20-40.38Q405.20-51.43 404.60-56.36L404.60-56.36L404.60-56.36Q402.56-57.04 400.01-57.04L400.01-57.04L400.01-58.82L400.01-58.82Q405.45-59.08 411.49-60.44L411.49-60.44L412.08-60.01L412.08-60.01Q410.64-51.68 410.64-31.96L410.64-31.96L410.64-16.41L410.64-16.41Q410.64-7.74 411.23-2.81L411.23-2.81L411.23-2.81Q413.27-2.13 415.82-2.13L415.82-2.13L415.82-0.34L415.82-0.34Q410.38-0.09 404.35 1.28L404.35 1.28L403.75 0.94L403.75 0.94Q404.69-4.93 404.69-12.33L404.69-12.33L404.35-12.41L404.35-12.41Q401.37-8.16 397.29-4.17L397.29-4.17L397.29-4.17Q393.21-0.17 389.56 1.28L389.56 1.28L389.56 1.28Q384.88 1.28 382.12-3.91L382.12-3.91L382.12-3.91Q379.36-9.10 379.36-14.96ZM386.16-18.79L386.16-18.79L386.16-18.79Q386.16-14.54 387.64-10.12L387.64-10.12L387.64-10.12Q389.13-5.70 391.94-5.70L391.94-5.70L391.94-5.70Q394.91-5.70 399.16-9.95L399.16-9.95L399.16-9.95Q403.41-14.20 404.69-17.60L404.69-17.60L404.69-17.60Q404.69-30.26 404.09-33.91L404.09-33.91L404.09-33.91Q399.59-35.96 395.38-35.96L395.38-35.96L395.38-35.96Q391.17-35.96 388.96-33.91L388.96-33.91L388.96-33.91Q386.16-27.46 386.16-18.79ZM439.03-4.85L439.03-4.85L439.03-4.85Q444.38-4.85 449.48-9.35L449.48-9.35L450.42-8.50L450.42-8.50Q445.57-1.87 438.01 1.28L438.01 1.28L438.01 1.28Q430.53 1.28 426.79-3.40L426.79-3.40L426.79-3.40Q423.05-8.08 423.05-16.41L423.05-16.41L423.05-16.41Q423.05-24.74 427.72-31.92L427.72-31.92L427.72-31.92Q432.40-39.10 440.22-41.23L440.22-41.23L440.22-41.23Q445.91-41.23 448.21-38.97L448.21-38.97L448.21-38.97Q450.50-36.72 450.50-31.03L450.50-31.03L450.50-31.03Q450.50-27.80 449.65-25.50L449.65-25.50L449.65-25.50Q451.44-24.82 453.82-24.82L453.82-24.82L453.73-23.04L453.73-23.04Q453.22-23.04 452.63-23.04L452.63-23.04L452.63-23.04Q443.11-23.04 429.85-20.23L429.85-20.23L429.85-20.23Q429.85-8.93 434.27-6.12L434.27-6.12L434.27-6.12Q436.14-4.85 439.03-4.85ZM443.70-25.93L443.70-25.93Q443.70-31.54 442.64-33.75L442.64-33.75L442.64-33.75Q441.58-35.96 438.18-35.96L438.18-35.96L438.18-35.96Q434.78-35.96 432.31-33.91L432.31-33.91L432.31-33.91Q430.02-29.16 429.85-22.44L429.85-22.44L429.85-22.44Q436.82-24.74 443.70-25.93L443.70-25.93ZM459.26-14.96L459.26-14.96L459.26-14.96Q459.26-23.80 464.02-31.15L464.02-31.15L464.02-31.15Q468.78-38.51 476.77-41.23L476.77-41.23L476.77-41.23Q481.36-41.23 485.10-40.38L485.10-40.38L485.10-40.38Q485.10-51.43 484.50-56.36L484.50-56.36L484.50-56.36Q482.46-57.04 479.91-57.04L479.91-57.04L479.91-58.82L479.91-58.82Q485.35-59.08 491.39-60.44L491.39-60.44L491.98-60.01L491.98-60.01Q490.54-51.68 490.54-31.96L490.54-31.96L490.54-16.41L490.54-16.41Q490.54-7.74 491.13-2.81L491.13-2.81L491.13-2.81Q493.17-2.13 495.72-2.13L495.72-2.13L495.72-0.34L495.72-0.34Q490.28-0.09 484.25 1.28L484.25 1.28L483.65 0.94L483.65 0.94Q484.59-4.93 484.59-12.33L484.59-12.33L484.25-12.41L484.25-12.41Q481.27-8.16 477.19-4.17L477.19-4.17L477.19-4.17Q473.11-0.17 469.46 1.28L469.46 1.28L469.46 1.28Q464.78 1.28 462.02-3.91L462.02-3.91L462.02-3.91Q459.26-9.10 459.26-14.96ZM466.06-18.79L466.06-18.79L466.06-18.79Q466.06-14.54 467.54-10.12L467.54-10.12L467.54-10.12Q469.03-5.70 471.84-5.70L471.84-5.70L471.84-5.70Q474.81-5.70 479.06-9.95L479.06-9.95L479.06-9.95Q483.31-14.20 484.59-17.60L484.59-17.60L484.59-17.60Q484.59-30.26 483.99-33.91L483.99-33.91L483.99-33.91Q479.49-35.96 475.28-35.96L475.28-35.96L475.28-35.96Q471.07-35.96 468.86-33.91L468.86-33.91L468.86-33.91Q466.06-27.46 466.06-18.79Z" fill="url(#editing-gradient-gradient)"></path></g></g><style>text {
  font-size: 64px;
  font-family: Arial Black;
  dominant-baseline: central;
  text-anchor: middle;
}</style></svg>